<?xml version="1.0" encoding="utf-8"?>
<!-- Generator: Adobe Illustrator 22.0.1, SVG Export Plug-In . SVG Version: 6.00 Build 0)  -->
<svg version="1.1" id="Слой_1" xmlns="http://www.w3.org/2000/svg" xmlns:xlink="http://www.w3.org/1999/xlink" x="0px" y="0px"
	 viewBox="0 0 57.2 57" style="enable-background:new 0 0 57.2 57;" xml:space="preserve">
<style type="text/css">
	.st0{fill:#FFFFFF;}
</style>
<g transform="translate(-399 -532)">
	<path class="st0" d="M427.6,589c-15.8,0-28.6-12.8-28.6-28.5s12.8-28.5,28.6-28.5c15.8,0,28.6,12.8,28.6,28.5S443.3,589,427.6,589z
		 M427.6,534c-14.7,0-26.6,11.9-26.6,26.5s11.9,26.5,26.6,26.5s26.6-11.9,26.6-26.5S442.2,534,427.6,534z"/>
	<path class="st0" d="M418.8,560.8c-0.3,0-0.5-0.1-0.7-0.3l-0.8-0.8c-0.2-0.2-0.3-0.4-0.3-0.7c0-0.3,0.1-0.5,0.3-0.7l13.8-13.8
		c0.4-0.4,1-0.4,1.4,0l0.8,0.8c0.2,0.2,0.3,0.4,0.3,0.7s-0.1,0.5-0.3,0.7l-13.8,13.8C419.3,560.7,419.1,560.8,418.8,560.8z"/>
	<path class="st0" d="M431.8,575.7c-0.3,0-0.5-0.1-0.7-0.3l-13.8-13.8c-0.2-0.2-0.3-0.4-0.3-0.7c0-0.3,0.1-0.5,0.3-0.7l0.8-0.8
		c0.4-0.4,1-0.4,1.4,0l13.8,13.8c0.2,0.2,0.3,0.4,0.3,0.7s-0.1,0.5-0.3,0.7l-0.8,0.8C432.3,575.6,432,575.7,431.8,575.7z"/>
</g>
</svg>
