<?xml version="1.0" encoding="utf-8"?>
<!-- Generator: Adobe Illustrator 19.2.1, SVG Export Plug-In . SVG Version: 6.00 Build 0)  -->
<svg version="1.1" id="Слой_1" xmlns="http://www.w3.org/2000/svg" xmlns:xlink="http://www.w3.org/1999/xlink" x="0px" y="0px"
	 viewBox="0 0 512 512" style="enable-background:new 0 0 512 512;" xml:space="preserve">
<style type="text/css">
	.st0{clip-path:url(#SVGID_2_);}
</style>
<g>
	<defs>
		<rect id="SVGID_1_" width="512" height="512"/>
	</defs>
	<clipPath id="SVGID_2_">
		<use xlink:href="#SVGID_1_"  style="overflow:visible;"/>
	</clipPath>
	<path class="st0" d="M256,512c-68.4,0-132.7-26.6-181-75C26.6,388.7,0,324.4,0,256S26.6,123.3,75,75C123.3,26.6,187.6,0,256,0
		s132.7,26.6,181,75c48.4,48.4,75,112.6,75,181s-26.6,132.7-75,181C388.7,485.4,324.4,512,256,512 M256,30
		c-60.4,0-117.1,23.5-159.8,66.2C53.5,138.9,30,195.6,30,256s23.5,117.1,66.2,159.8C138.9,458.5,195.6,482,256,482
		s117.1-23.5,159.8-66.2C458.5,373.1,482,316.4,482,256s-23.5-117.1-66.2-159.8C373.1,53.5,316.4,30,256,30"/>
	<path class="st0" d="M332.2,379.3c-5.2,0-10.2-2.7-13-7.5c-13-22.6-37.3-36.6-63.3-36.6c-26,0-50.2,14-63.3,36.5
		c-4.1,7.2-13.3,9.6-20.5,5.5c-7.2-4.1-9.6-13.3-5.5-20.5c18.4-31.8,52.6-51.5,89.2-51.5c36.7,0,71,19.8,89.3,51.7
		c4.1,7.2,1.7,16.4-5.5,20.5C337.4,378.7,334.8,379.3,332.2,379.3"/>
	<path class="st0" d="M178.7,250c-22.6,0-40.9-18.4-40.9-40.9c0-22.6,18.4-40.9,40.9-40.9s40.9,18.4,40.9,40.9S201.2,250,178.7,250
		 M178.7,198.1c-6,0-10.9,4.9-10.9,10.9s4.9,10.9,10.9,10.9c6,0,10.9-4.9,10.9-10.9S184.7,198.1,178.7,198.1"/>
	<path class="st0" d="M332.2,250c-22.6,0-40.9-18.4-40.9-40.9c0-22.6,18.4-40.9,40.9-40.9c22.6,0,40.9,18.4,40.9,40.9
		S354.8,250,332.2,250 M332.2,198.1c-6,0-10.9,4.9-10.9,10.9s4.9,10.9,10.9,10.9c6,0,10.9-4.9,10.9-10.9S338.3,198.1,332.2,198.1"/>
</g>
</svg>
