<svg xmlns="http://www.w3.org/2000/svg" viewBox="0 0 17.41 17.41"><defs><style>.cls-1,.cls-2{fill:#fff;}.cls-1{fill-rule:evenodd;}</style></defs><title>facebook</title><g id="Слой_2" data-name="Слой 2"><g id="Foreground"><path class="cls-1" d="M14.73,0h-12A2.68,2.68,0,0,0,0,2.68V14.73a2.68,2.68,0,0,0,2.68,2.68H6.29V9.12H4.58v-2H6.29V5.78a2.89,2.89,0,0,1,3.1-3h2.08V5H9.85c-.61,0-.91.32-.91,1V7.11h2.53v2H8.94v8.29h5.79a2.68,2.68,0,0,0,2.68-2.68v-12A2.68,2.68,0,0,0,14.73,0Z"/><rect class="cls-2" x="6.29" y="17.41" width="2.65"/></g></g></svg>