<svg id="Слой_1" data-name="Слой 1" xmlns="http://www.w3.org/2000/svg" xmlns:xlink="http://www.w3.org/1999/xlink" width="512" height="512" viewBox="0 0 512 512"><defs><clipPath id="clip-path" transform="translate(0 0)"><rect width="512" height="512" fill="none"/></clipPath></defs><title>good</title><g clip-path="url(#clip-path)"><path d="M437,75A256,256,0,1,0,75,437,256,256,0,0,0,437,75M415.8,415.8A226,226,0,1,1,96.2,96.2,226,226,0,1,1,415.8,415.8" transform="translate(0 0)"/><path d="M339.73,307.31a15,15,0,0,0-20.5,5.47,73.07,73.07,0,0,1-126.61-.11,15,15,0,0,0-26,15,103.07,103.07,0,0,0,178.57.15,15,15,0,0,0-5.47-20.49" transform="translate(0 0)"/><path d="M195.82,258.3l0.16-.14c24.53-21.7,43.91-38.84,43.91-63.18A39.42,39.42,0,0,0,200,155.13a41.65,41.65,0,0,0-20.33,5.37,41.68,41.68,0,0,0-20.33-5.37A39.42,39.42,0,0,0,119.54,195c0,24.34,19.38,41.48,43.91,63.18l0.16,0.14a24.55,24.55,0,0,0,32.21,0M149.54,195a9.53,9.53,0,0,1,9.85-9.85,12.15,12.15,0,0,1,8.36,3.61,16.75,16.75,0,0,0,23.93,0,12.14,12.14,0,0,1,8.36-3.61,9.52,9.52,0,0,1,9.85,9.85c0,9.7-11.37,20.79-30.18,37.51-18.8-16.72-30.18-27.82-30.18-37.51" transform="translate(0 0)"/><path d="M352.64,155.13a41.6,41.6,0,0,0-20.33,5.38A41.61,41.61,0,0,0,312,155.13,39.42,39.42,0,0,0,272.13,195c0,24.34,19.38,41.49,43.91,63.19l0.16,0.14a24.56,24.56,0,0,0,32.21,0l0.16-.14c24.54-21.7,43.91-38.85,43.91-63.19a39.42,39.42,0,0,0-39.84-39.85m-20.33,77.36c-18.81-16.72-30.18-27.82-30.18-37.51a9.52,9.52,0,0,1,9.85-9.85,12.16,12.16,0,0,1,8.36,3.61,16.74,16.74,0,0,0,23.93,0,12.16,12.16,0,0,1,8.36-3.61,9.53,9.53,0,0,1,9.85,9.85c0,9.7-11.37,20.79-30.18,37.51" transform="translate(0 0)"/></g></svg>