<svg xmlns="http://www.w3.org/2000/svg" viewBox="0 0 252.42 239.27"><defs><style>.cls-1{fill:#454443;}</style></defs><title>info-box</title><g id="Слой_2" data-name="Слой 2"><g id="Слой_1-2" data-name="Слой 1"><path class="cls-1" d="M252.08,153.84l-37.55-45.28a1.5,1.5,0,0,0-1.15-.54H31.54a1.49,1.49,0,0,0-1.26.68l-30,46.21a1.49,1.49,0,0,0,1.26,2.31H31.65v80.55a1.5,1.5,0,0,0,1.5,1.5H213.38a1.5,1.5,0,0,0,1.5-1.5V156.3h36a1.5,1.5,0,0,0,1.16-2.46Zm-247.82.38L32.35,111h44.4l-28.12,43.2ZM78,236.27H34.65V157.22h14.8a1.48,1.48,0,0,0,1.25-.68L78,114.62Zm133.9,0H81V113.93l32.18,41.79a1.54,1.54,0,0,0,1.19.58h97.53Zm-96.79-83L82.53,111H212.67l35.06,42.28Z"/><path class="cls-1" d="M106.47,173a1.14,1.14,0,0,1,1.14,1.14V191a1.15,1.15,0,0,1-2.3,0V175.14H95V191a1.16,1.16,0,0,1-2.31,0V174.11A1.15,1.15,0,0,1,93.85,173Z"/><path class="cls-1" d="M106.48,192.37a1.4,1.4,0,0,1-1.42-1.39V175.39H95.27V191a1.41,1.41,0,0,1-2.81,0V174.11a1.39,1.39,0,0,1,1.39-1.39h12.63a1.38,1.38,0,0,1,1.38,1.39V191A1.38,1.38,0,0,1,106.48,192.37ZM94.77,174.89h10.79V191a.91.91,0,0,0,.92.89.89.89,0,0,0,.88-.89V174.11a.9.9,0,0,0-.88-.89H93.85a.91.91,0,0,0-.89.89V191a.91.91,0,0,0,1.81,0Z"/><path class="cls-1" d="M110.69,182.45a9.67,9.67,0,1,1,9.67,9.75A9.46,9.46,0,0,1,110.69,182.45Zm2.44,0a7.3,7.3,0,0,0,7.23,7.59c4.34,0,7.23-3.31,7.23-7.59a7.23,7.23,0,0,0-7.23-7.58C116.24,174.87,113.13,178,113.13,182.45Z"/><path class="cls-1" d="M120.36,192.45a9.63,9.63,0,0,1-9.92-10,9.75,9.75,0,0,1,9.92-10,9.63,9.63,0,0,1,9.92,10A9.74,9.74,0,0,1,120.36,192.45Zm0-19.5a9.25,9.25,0,0,0-9.42,9.5,9.15,9.15,0,0,0,9.42,9.5,9.25,9.25,0,0,0,9.42-9.5A9.15,9.15,0,0,0,120.36,173Zm0,17.34a7.59,7.59,0,0,1-7.48-7.84c0-4.54,3.15-7.83,7.48-7.83a7.49,7.49,0,0,1,7.48,7.83C127.84,187,124.7,190.29,120.36,190.29Zm0-15.17c-4,0-7,3.08-7,7.33a7.1,7.1,0,0,0,7,7.34c4,0,7-3.09,7-7.34A7,7,0,0,0,120.36,175.12Z"/><path class="cls-1" d="M138.08,172.91c5.42,0,7,2.93,7,5.88s-2.2,6-6.83,6c-.76,0-1.89,0-2.84-.11V191a1.15,1.15,0,0,1-2.3,0V174.11a1.14,1.14,0,0,1,1.13-1.14C135.51,172.94,137.22,172.91,138.08,172.91Zm-2.65,9.54c.92.08,1.81.14,2.76.14,2.79,0,4.47-1.44,4.47-3.82s-1.35-3.69-4.36-3.69c-.76,0-2,0-2.87.06Z"/><path class="cls-1" d="M134.29,192.37a1.4,1.4,0,0,1-1.41-1.39V174.11a1.38,1.38,0,0,1,1.38-1.39c1.24,0,3-.06,3.82-.06,6.33,0,7.27,3.84,7.27,6.13,0,3.09-2.19,6.21-7.08,6.21-.34,0-1.48,0-2.59-.08V191A1.39,1.39,0,0,1,134.29,192.37Zm3.79-19.21c-.87,0-2.57,0-3.81.06a.9.9,0,0,0-.89.89V191a.9.9,0,0,0,1.8,0v-6.61l.27,0c.93.08,2.07.1,2.82.1,4.86,0,6.58-3.07,6.58-5.71C144.85,176.69,144,173.16,138.08,173.16Zm.11,9.68c-.85,0-1.71-.05-2.78-.14l-.23,0v-7.79h.24c.88,0,2.11-.06,2.88-.06,3,0,4.61,1.4,4.61,3.94S141.1,182.84,138.19,182.84Zm-2.51-.62c.95.08,1.74.12,2.51.12,2.64,0,4.22-1.34,4.22-3.57s-1.42-3.44-4.11-3.44c-.7,0-1.78,0-2.62,0Z"/><path class="cls-1" d="M165.37,194.4a1.08,1.08,0,0,1-2.16,0v-2.47h-14a1.14,1.14,0,0,1-1.13-1.14V173.94a1.15,1.15,0,0,1,2.3,0v15.82H160.5V173.94a1.15,1.15,0,0,1,2.3,0v15.82h1.44a1.14,1.14,0,0,1,1.13,1.14Z"/><path class="cls-1" d="M164.29,195.7a1.34,1.34,0,0,1-1.33-1.3v-2.22H149.17a1.38,1.38,0,0,1-1.38-1.39V173.94a1.39,1.39,0,0,1,1.41-1.36,1.4,1.4,0,0,1,1.39,1.36v15.58h9.66V173.94a1.39,1.39,0,0,1,1.41-1.36,1.4,1.4,0,0,1,1.39,1.36v15.58h1.19a1.38,1.38,0,0,1,1.38,1.38v3.5A1.34,1.34,0,0,1,164.29,195.7ZM149.2,173.08a.9.9,0,0,0-.91.86v16.85a.89.89,0,0,0,.88.89h14.29v2.72a.83.83,0,0,0,1.66,0v-3.5a.89.89,0,0,0-.88-.88h-1.69V173.94a.89.89,0,0,0-.89-.86.9.9,0,0,0-.91.86V190H150.09V173.94A.89.89,0,0,0,149.2,173.08Z"/><path class="cls-1" d="M183.94,191a1.15,1.15,0,0,1-2.3,0V176.79l-11,14.49a1.66,1.66,0,0,1-1.35.84,1.11,1.11,0,0,1-1.17-1.24V173.94a1.15,1.15,0,0,1,1.17-1.11,1.14,1.14,0,0,1,1.13,1.11v14.2l11-14.49a1.62,1.62,0,0,1,1.3-.82,1.13,1.13,0,0,1,1.22,1.22Z"/><path class="cls-1" d="M182.8,192.37a1.4,1.4,0,0,1-1.41-1.39V177.53l-10.58,13.9a1.91,1.91,0,0,1-1.55.94,1.35,1.35,0,0,1-1.42-1.49V173.94a1.4,1.4,0,0,1,2.8,0V187.4l10.58-13.91a1.88,1.88,0,0,1,1.5-.91,1.38,1.38,0,0,1,1.47,1.47V191A1.39,1.39,0,0,1,182.8,192.37Zm-.91-16.32V191a.9.9,0,0,0,1.8,0V174.05a.88.88,0,0,0-1-1c-.46,0-.75.27-1.1.72l-11.48,15.08V173.94a.88.88,0,0,0-.88-.86.91.91,0,0,0-.92.86v16.94c0,.45.16,1,.92,1,.43,0,.75-.2,1.15-.74Z"/><path class="cls-1" d="M198.18,172.94a1.17,1.17,0,0,1,1.14,1.17V191a1.15,1.15,0,0,1-2.3,0v-6.09h-3.55l-4.58,6.55a1.31,1.31,0,0,1-1.13.68.94.94,0,0,1-1-1,1.2,1.2,0,0,1,.25-.71l4.22-6a5.69,5.69,0,0,1-3.74-5.31c0-3.41,2.28-6.28,7.4-6.28C195.8,172.89,197.1,172.94,198.18,172.94Zm-1.16,2.2c-.62,0-1.76-.08-2.57-.08-3,0-4.53,1.73-4.53,4a3.84,3.84,0,0,0,3.28,3.68H197Z"/><path class="cls-1" d="M198.19,192.37a1.4,1.4,0,0,1-1.42-1.39v-5.84H193.6l-4.5,6.45a1.56,1.56,0,0,1-1.34.78,1.2,1.2,0,0,1-1.26-1.22,1.47,1.47,0,0,1,.3-.86l4-5.7a6,6,0,0,1-3.61-5.42c0-3.16,2-6.53,7.65-6.53l1.53,0c.59,0,1.21,0,1.78,0h0a1.43,1.43,0,0,1,1.37,1.42V191A1.38,1.38,0,0,1,198.19,192.37Zm-4.85-7.73h3.93V191a.91.91,0,0,0,.92.89.89.89,0,0,0,.88-.89V174.11a.92.92,0,0,0-.89-.92l-1.79,0-1.51,0c-4.48,0-7.15,2.25-7.15,6a5.49,5.49,0,0,0,3.59,5.08l.29.12-4.41,6.22a1,1,0,0,0-.2.56.7.7,0,0,0,.76.72,1.07,1.07,0,0,0,.93-.56Zm3.93-1.67H193.2a4.11,4.11,0,0,1-3.53-3.93c0-2.57,1.88-4.23,4.78-4.23.75,0,1.75,0,2.41.07l.41,0Zm-2.82-7.66c-2.64,0-4.28,1.42-4.28,3.73a3.62,3.62,0,0,0,3.07,3.44h3.53v-7.09C196.11,175.35,195.16,175.31,194.45,175.31Z"/><path class="cls-1" d="M104.12,200.47a7.68,7.68,0,0,0-3.73-.84c-4,0-6.84,3-6.84,7.37s2.92,7.36,7.18,7.36a7.14,7.14,0,0,0,3.81-1,1.29,1.29,0,0,1,.66-.18,1,1,0,0,1,.79.37.82.82,0,0,1,.19.52,1.19,1.19,0,0,1-.5.9,9.19,9.19,0,0,1-5.16,1.52c-5.52,0-9.34-3.73-9.34-9.46,0-5.29,3.42-9.47,9.18-9.47a9.51,9.51,0,0,1,4.84,1.23,1.07,1.07,0,0,1,.55.9,1,1,0,0,1-.15.5.92.92,0,0,1-.84.47A1.35,1.35,0,0,1,104.12,200.47Z"/><path class="cls-1" d="M100.52,216.71c-5.73,0-9.59-3.9-9.59-9.71s3.88-9.72,9.43-9.72a9.73,9.73,0,0,1,5,1.27,1.3,1.3,0,0,1,.67,1.11,1.28,1.28,0,0,1-.19.64,1.19,1.19,0,0,1-1,.58,1.72,1.72,0,0,1-.75-.18h0a7.56,7.56,0,0,0-3.62-.81c-3.88,0-6.59,2.93-6.59,7.12s2.79,7.11,6.93,7.11a6.92,6.92,0,0,0,3.69-1,1.48,1.48,0,0,1,.78-.22,1.23,1.23,0,0,1,1,.46,1.1,1.1,0,0,1,.24.68,1.42,1.42,0,0,1-.61,1.1A9.36,9.36,0,0,1,100.52,216.71Zm-.16-18.93c-5.34,0-8.93,3.7-8.93,9.22s3.66,9.21,9.09,9.21a8.86,8.86,0,0,0,5-1.48.9.9,0,0,0,.4-.69.57.57,0,0,0-.13-.36.74.74,0,0,0-.6-.28.93.93,0,0,0-.52.15,7.49,7.49,0,0,1-4,1.06c-4.44,0-7.43-3.06-7.43-7.61s2.92-7.62,7.09-7.62a8,8,0,0,1,3.85.87,1.11,1.11,0,0,0,.52.13.67.67,0,0,0,.62-.35.7.7,0,0,0,.12-.37.85.85,0,0,0-.43-.69A9.27,9.27,0,0,0,100.36,197.78Z"/><path class="cls-1" d="M114.16,207.47a7.9,7.9,0,0,0,4.29-1.39v-7.34a1.12,1.12,0,0,1,2.23,0v16.54a1.12,1.12,0,0,1-2.23,0v-7.13a8.67,8.67,0,0,1-4.87,1.42c-2.92,0-5.52-1.58-5.52-5.86v-5a1.12,1.12,0,0,1,2.23,0v4.36C110.29,206.29,111.92,207.47,114.16,207.47Z"/><path class="cls-1" d="M119.58,216.63a1.36,1.36,0,0,1-1.38-1.35v-6.66a9.26,9.26,0,0,1-4.62,1.2c-3.61,0-5.77-2.28-5.77-6.11v-5a1.37,1.37,0,0,1,2.73,0v4.36c0,2.73,1.22,4.12,3.62,4.12a7.63,7.63,0,0,0,4-1.28v-7.2a1.37,1.37,0,0,1,2.73,0v16.54A1.35,1.35,0,0,1,119.58,216.63Zm-.88-9v7.62a.87.87,0,0,0,1.73,0V198.74a.85.85,0,0,0-.85-.83.87.87,0,0,0-.88.83v7.47l-.11.07a8.15,8.15,0,0,1-4.43,1.44c-1.88,0-4.12-.8-4.12-4.62v-4.36a.85.85,0,0,0-.85-.83.87.87,0,0,0-.88.83v5c0,5.07,3.69,5.61,5.27,5.61A8.43,8.43,0,0,0,118.3,208Z"/><path class="cls-1" d="M135.77,210.62h-8.39l-2.11,5a1,1,0,0,1-1,.73,1,1,0,0,1-1-1,1.53,1.53,0,0,1,.11-.47l7-16.34a1.36,1.36,0,0,1,1.28-.89,1.34,1.34,0,0,1,1.27.89l7,16.26a1.36,1.36,0,0,1,.08.44,1.08,1.08,0,0,1-1.08,1.13,1.12,1.12,0,0,1-1-.73Zm-4.18-10-3.32,7.86h6.63Z"/><path class="cls-1" d="M139,216.63a1.37,1.37,0,0,1-1.28-.89l-2.07-4.87h-8.06l-2,4.87a1.22,1.22,0,0,1-1.23.89,1.25,1.25,0,0,1-1.3-1.27,1.69,1.69,0,0,1,.12-.55l7.06-16.36a1.62,1.62,0,0,1,1.52-1,1.59,1.59,0,0,1,1.49,1.05l7,16.25a1.64,1.64,0,0,1,.1.54A1.33,1.33,0,0,1,139,216.63Zm-11.74-6.26h8.72l2.2,5.18a.87.87,0,0,0,.82.58.83.83,0,0,0,.83-.88,1,1,0,0,0-.07-.36l-7-16.24a1.11,1.11,0,0,0-2.1,0l-7,16.32a1.39,1.39,0,0,0-.09.38.75.75,0,0,0,.8.77c.32,0,.58-.09.77-.58Zm8.07-1.6H127.9l3.69-8.76Zm-6.63-.5h5.87l-2.93-7Z"/><path class="cls-1" d="M153.67,200.47a7.74,7.74,0,0,0-3.74-.84c-4,0-6.83,3-6.83,7.37s2.92,7.36,7.18,7.36a7.14,7.14,0,0,0,3.81-1,1.27,1.27,0,0,1,.66-.18,1,1,0,0,1,.79.37.8.8,0,0,1,.18.52,1.16,1.16,0,0,1-.5.9,9.16,9.16,0,0,1-5.15,1.52c-5.53,0-9.34-3.73-9.34-9.46,0-5.29,3.42-9.47,9.18-9.47a9.54,9.54,0,0,1,4.84,1.23,1.09,1.09,0,0,1,.55.9.89.89,0,0,1-.16.5.92.92,0,0,1-.84.47A1.34,1.34,0,0,1,153.67,200.47Z"/><path class="cls-1" d="M150.07,216.71c-5.74,0-9.59-3.9-9.59-9.71s3.88-9.72,9.43-9.72a9.75,9.75,0,0,1,5,1.27,1.32,1.32,0,0,1,.67,1.11,1.26,1.26,0,0,1-1.25,1.22,1.65,1.65,0,0,1-.74-.18h0a7.53,7.53,0,0,0-3.62-.81c-3.87,0-6.58,2.93-6.58,7.12s2.78,7.11,6.93,7.11a6.88,6.88,0,0,0,3.68-1,1.51,1.51,0,0,1,.79-.22,1.23,1.23,0,0,1,1,.46,1,1,0,0,1,.24.68,1.41,1.41,0,0,1-.6,1.1A9.38,9.38,0,0,1,150.07,216.71Zm-.16-18.93c-5.34,0-8.93,3.7-8.93,9.22s3.65,9.21,9.09,9.21a8.86,8.86,0,0,0,5-1.48.92.92,0,0,0,.39-.69.52.52,0,0,0-.13-.36.73.73,0,0,0-.59-.28,1,1,0,0,0-.53.15,7.55,7.55,0,0,1-3.94,1.06c-4.45,0-7.43-3.06-7.43-7.61s2.91-7.62,7.08-7.62a8,8,0,0,1,3.85.87,1.14,1.14,0,0,0,.52.13.69.69,0,0,0,.63-.35.7.7,0,0,0,.12-.37.86.86,0,0,0-.44-.69A9.23,9.23,0,0,0,149.91,197.78Z"/><path class="cls-1" d="M165.08,215.28a1.12,1.12,0,0,1-2.23,0V199.89h-5.42a1.05,1.05,0,0,1,0-2.1H170.5a1.05,1.05,0,0,1,0,2.1h-5.42Z"/><path class="cls-1" d="M164,216.63a1.36,1.36,0,0,1-1.38-1.35V200.14h-5.17a1.3,1.3,0,0,1,0-2.6H170.5a1.3,1.3,0,0,1,0,2.6h-5.17v15.14A1.34,1.34,0,0,1,164,216.63ZM157.43,198a.8.8,0,0,0,0,1.6h5.67v15.64a.87.87,0,0,0,1.73,0V199.64h5.67a.8.8,0,0,0,0-1.6Z"/><path class="cls-1" d="M175,216.2a1.09,1.09,0,0,1-1.1-1.1V198.74a1.12,1.12,0,0,1,2.23,0v5.89c1-.08,2-.13,2.58-.13,4.76,0,6.94,2.21,6.94,5.68,0,3.86-2.73,6.07-7.44,6.07C177.14,216.25,176,216.23,175,216.2Zm1.13-2.13c.71,0,1.5.08,2.34.08,3,0,4.82-1.26,4.82-3.92,0-2.39-1.77-3.63-4.74-3.63a21.91,21.91,0,0,0-2.42.16Z"/><path class="cls-1" d="M178.24,216.5c-1.18,0-2.4,0-3.21-.05a1.34,1.34,0,0,1-1.35-1.35V198.74a1.37,1.37,0,0,1,2.73,0v5.62c1-.07,1.79-.11,2.33-.11,4.64,0,7.19,2.1,7.19,5.93C185.93,214.2,183.13,216.5,178.24,216.5Zm-3.18-18.59a.87.87,0,0,0-.88.83V215.1a.84.84,0,0,0,.85.85h0c.81,0,2,.05,3.2.05,4.57,0,7.19-2.12,7.19-5.82s-2.31-5.43-6.69-5.43c-.57,0-1.51,0-2.56.13l-.27,0v-6.16A.85.85,0,0,0,175.06,197.91Zm3.44,16.49c-.61,0-1.19,0-1.74-.05l-.85,0v-7.77l.22,0a23.42,23.42,0,0,1,2.45-.16c3.17,0,5,1.42,5,3.88C183.57,212.92,181.77,214.4,178.5,214.4Zm-2.09-.57.37,0c.54,0,1.12.05,1.72.05,3,0,4.57-1.24,4.57-3.67,0-2.18-1.6-3.38-4.49-3.38-.58,0-1.38.05-2.17.13Z"/><path class="cls-1" d="M198,197.76a1.15,1.15,0,0,1,1.11,1.14v16.38a1.12,1.12,0,0,1-2.24,0v-5.92h-3.45L189,215.73a1.27,1.27,0,0,1-1.1.65.91.91,0,0,1-1-.94,1.2,1.2,0,0,1,.24-.69l4.1-5.78a5.55,5.55,0,0,1-3.63-5.16c0-3.31,2.21-6.1,7.18-6.1C195.66,197.71,196.92,197.76,198,197.76Zm-1.13,2.13c-.6,0-1.71-.07-2.5-.07-2.86,0-4.39,1.68-4.39,3.86a3.73,3.73,0,0,0,3.18,3.58h3.71Z"/><path class="cls-1" d="M198,216.63a1.36,1.36,0,0,1-1.38-1.35v-5.67h-3.07l-4.36,6.26a1.54,1.54,0,0,1-1.31.76,1.17,1.17,0,0,1-1.23-1.19,1.45,1.45,0,0,1,.29-.84l3.92-5.53a5.76,5.76,0,0,1-3.5-5.26c0-3.07,1.95-6.35,7.43-6.35l1.49,0,1.72,0h0a1.4,1.4,0,0,1,1.35,1.38v16.39A1.35,1.35,0,0,1,198,216.63Zm-4.7-7.52h3.82v6.17a.87.87,0,0,0,1.74,0V198.89A.88.88,0,0,0,198,198l-1.74,0-1.47,0c-4.34,0-6.93,2.19-6.93,5.85a5.34,5.34,0,0,0,3.48,4.93l.29.11-4.29,6.05a1,1,0,0,0-.19.54.66.66,0,0,0,.73.69,1,1,0,0,0,.89-.54Zm3.82-1.6h-4a4,4,0,0,1-3.43-3.83c0-2.5,1.82-4.11,4.64-4.11.7,0,1.64,0,2.26.06l.49,0Zm-2.75-7.44c-2.55,0-4.14,1.38-4.14,3.61a3.48,3.48,0,0,0,3,3.33h3.42v-6.88C196,200.11,195,200.07,194.34,200.07Z"/><path class="cls-1" d="M143.88,80.21a1.57,1.57,0,0,1-.62-.13,1.51,1.51,0,0,1-.74-2c1.2-2.65,2.6-5.43,4.15-8.27,11.47-21,1.6-37.18,1.5-37.34a1.5,1.5,0,0,1,2.54-1.6c.45.72,10.89,17.83-1.41,40.38-1.51,2.77-2.88,5.49-4.05,8.07A1.49,1.49,0,0,1,143.88,80.21Z"/><path class="cls-1" d="M145.05,36h-.21a1.51,1.51,0,0,1-1.15-.7,1.48,1.48,0,0,1-.12-1.34,24.22,24.22,0,0,0,.75-11.07c-1-6.69,2.15-11.9,7.73-13,4.35-.83,7.7.53,10.85,4.42a25.86,25.86,0,0,0,9.47,7.11c1,.44,1.59.74,1.72,1.61a1.58,1.58,0,0,1-.49,1.36c-3.54,3.19-8.7,1.75-12,.3,1.58,7.43.06,8-.8,8.26-2.47.86-5.2-1.74-7.84-4.73C150.12,35.5,146.12,36,145.05,36Zm9.37-23.33a9.52,9.52,0,0,0-1.81.19h0c-4,.77-6.06,4.44-5.32,9.59a29.79,29.79,0,0,1-.12,9.48c1.16-1,2.61-3,3.79-7a1.54,1.54,0,0,1,1.14-1.05c1-.2,1.41.32,2.51,1.59,2.64,3.07,4,4.16,4.73,4.5a39.74,39.74,0,0,0-1.39-7.8,1.5,1.5,0,0,1,2.27-1.64c1.67,1.09,5.84,3.17,9,2.68a27.77,27.77,0,0,1-8.68-7C158.37,13.52,156.44,12.68,154.42,12.68Zm-2.09-1.28h0Z"/><path class="cls-1" d="M151.14,13.2a1.51,1.51,0,0,1-1.45-1.09c-3.14-11.15-12.64-9-13-8.94a1.49,1.49,0,0,1-1.81-1.11A1.51,1.51,0,0,1,136,.25c.12,0,12.7-2.84,16.62,11a1.49,1.49,0,0,1-1,1.85A1.39,1.39,0,0,1,151.14,13.2Z"/><path class="cls-1" d="M154.87,78.13a1.49,1.49,0,0,1-1.32-2.21l.06-.11a51.74,51.74,0,0,0,5.26-13.34,42.52,42.52,0,0,0,.37-19.82,1.5,1.5,0,0,1,2.89-.81,44.93,44.93,0,0,1-.35,21.36,54.82,54.82,0,0,1-5.53,14l-.06.11A1.49,1.49,0,0,1,154.87,78.13Z"/><path class="cls-1" d="M108.13,64.24h0a7,7,0,0,1-6.94-7,7,7,0,0,1,7-6.94h0a7,7,0,0,1,0,13.93Zm0-10.93a4,4,0,0,0,0,7.93h0a4,4,0,1,0,0-7.93Z"/><path class="cls-1" d="M96.71,105h0a5.81,5.81,0,0,1,0-11.61h0a5.81,5.81,0,0,1,0,11.61Zm0-8.61a2.81,2.81,0,0,0,0,5.61h0a2.81,2.81,0,1,0,0-5.61Z"/><path class="cls-1" d="M109.79,87.75h0a3.52,3.52,0,0,1-2.46-6,3.7,3.7,0,0,1,2.49-1,3.53,3.53,0,0,1,0,7Zm0-4a.53.53,0,0,0-.53.52.58.58,0,0,0,.53.53.52.52,0,0,0,.52-.52A.51.51,0,0,0,109.79,83.7Z"/><path class="cls-1" d="M91.91,74.67h0a2.64,2.64,0,0,1,0-5.27h0a2.62,2.62,0,0,1,1.86.78,2.65,2.65,0,0,1,.76,1.87,2.63,2.63,0,0,1-2.63,2.62Zm0-3a.36.36,0,0,0-.25.11.36.36,0,0,0-.11.26.34.34,0,0,0,.11.25c.06.07.17.08.25.11a.37.37,0,0,0,0-.73h0Z"/><path class="cls-1" d="M131.32,103.37a1.5,1.5,0,0,1-.69-2.83c7.12-3.71,8.49-9.5,8.5-9.56a1.5,1.5,0,1,1,2.93.65c-.06.29-1.69,7.23-10.05,11.57A1.44,1.44,0,0,1,131.32,103.37Z"/><path class="cls-1" d="M42.73,69.88a1.49,1.49,0,0,1-1.21-.61c-.3-.4-7-9.12-20.26-7.19a1.5,1.5,0,0,1-.43-3c15.14-2.2,22.79,8,23.1,8.38a1.5,1.5,0,0,1-1.2,2.39Z"/><path class="cls-1" d="M33.12,63.18a1.54,1.54,0,0,1-.77-.21,19.78,19.78,0,0,1-8.48-12.14C22.21,42.74,28,36.59,28.26,36.34a1.49,1.49,0,0,1,1.83-.26c.3.17,7.41,4.34,8.83,11.88.91,4.75-.65,9.68-4.62,14.66A1.53,1.53,0,0,1,33.12,63.18Zm-3.48-23.8c-1.34,1.81-3.83,6-2.83,10.85a16.55,16.55,0,0,0,6,9.38C35.58,55.76,36.64,52,36,48.52,35.1,43.89,31.46,40.71,29.64,39.38Z"/><path class="cls-1" d="M50.78,106.52c-9.76,0-17.58-15.2-17.94-15.92a1.5,1.5,0,1,1,2.67-1.35,48.2,48.2,0,0,0,5.67,8.35c2.93,3.36,7.33,7.06,11.71,5.56a1.5,1.5,0,0,1,1,2.84A9.73,9.73,0,0,1,50.78,106.52Z"/><path class="cls-1" d="M74.4,92.86a1.5,1.5,0,0,1-.84-2.74c.56-.39,5.32-4,1.61-10.56a1.5,1.5,0,1,1,2.61-1.46c4.12,7.34.14,12.7-2.54,14.5A1.54,1.54,0,0,1,74.4,92.86Z"/><path class="cls-1" d="M70,69.47a1.49,1.49,0,0,1-1.2-.61c-4.42-5.94-7.56-7.06-9.41-7a4.61,4.61,0,0,0-3.4,2,1.5,1.5,0,0,1-2.58-1.53,7.65,7.65,0,0,1,5.83-3.5c3.76-.18,7.78,2.56,12,8.19A1.51,1.51,0,0,1,70,69.47Z"/><path class="cls-1" d="M43.68,75a1.49,1.49,0,0,1-1.41-1,20.23,20.23,0,0,1-1-5.56,1.5,1.5,0,0,1,3-.07A17.08,17.08,0,0,0,45.09,73a1.5,1.5,0,0,1-.9,1.92A1.52,1.52,0,0,1,43.68,75Z"/><path class="cls-1" d="M217,42.38a1.6,1.6,0,0,1-.53-.09,1.5,1.5,0,0,1-.87-1.94h0a18.72,18.72,0,0,0-3.39-17.74,1.5,1.5,0,1,1,2.31-1.91,21.73,21.73,0,0,1,3.88,20.72A1.48,1.48,0,0,1,217,42.38Z"/><path class="cls-1" d="M236.56,43.52a1.52,1.52,0,0,1-1.11-.49c-.26-.29-6.22-6.55-16.37-.42A1.5,1.5,0,0,1,217.52,40c6.4-3.86,11.51-3.42,14.67-2.38A13.61,13.61,0,0,1,237.68,41a1.49,1.49,0,0,1-.12,2.11A1.47,1.47,0,0,1,236.56,43.52Z"/><path class="cls-1" d="M218.3,42.83l-.25,0a1.5,1.5,0,0,1-1.23-1.73c1.15-6.86,11.5-13,11.94-13.26a1.5,1.5,0,1,1,1.52,2.59c-2.66,1.57-9.74,6.62-10.5,11.16A1.51,1.51,0,0,1,218.3,42.83Z"/><path class="cls-1" d="M217,42.38a1.5,1.5,0,0,1-1.43-1c-3.79-11.59-14.56-10-15-9.9a1.51,1.51,0,0,1-1.73-1.24A1.5,1.5,0,0,1,200,28.49c.14,0,13.78-2.08,18.35,11.93a1.49,1.49,0,0,1-1,1.89A1.47,1.47,0,0,1,217,42.38Z"/><path class="cls-1" d="M206,60.77a1.65,1.65,0,0,1-.43-.06l-12.72-3.8a1.5,1.5,0,0,1,.86-2.88l12.72,3.81a1.5,1.5,0,0,1-.43,2.93Z"/><path class="cls-1" d="M218.29,75.71a1.25,1.25,0,0,1-.43-.07l-13-3.88a1.5,1.5,0,0,1,.85-2.88l13,3.89a1.5,1.5,0,0,1-.42,2.94Z"/><path class="cls-1" d="M233,58.79a1.29,1.29,0,0,1-.43-.07l-15.09-4.58a1.5,1.5,0,0,1,.87-2.87l15.09,4.58a1.5,1.5,0,0,1-.44,2.94Z"/><path class="cls-1" d="M201.2,88.69a1.54,1.54,0,0,1-.43-.06L188.46,85a1.5,1.5,0,0,1,.86-2.87l12.3,3.67a1.5,1.5,0,0,1-.42,2.94Z"/><path class="cls-1" d="M213.67,104.65a1.54,1.54,0,0,1-.43-.06l-10.83-3.23a1.5,1.5,0,1,1,.86-2.87l10.82,3.23a1.5,1.5,0,0,1-.42,2.93Z"/><path class="cls-1" d="M68.22,105.34a12.52,12.52,0,0,1,1.93-.51,27.72,27.72,0,0,0,12.18-5.39,1.5,1.5,0,0,0-1.91-2.32,24.75,24.75,0,0,1-10.93,4.78,12.5,12.5,0,0,0-2.64.77,15.39,15.39,0,0,0-3.47,3.15c-.64.67-1.35,1.43-2.13,2.2h4.17l.14-.15A16.91,16.91,0,0,1,68.22,105.34Z"/><path class="cls-1" d="M33.26,108h4.19a73.27,73.27,0,0,1-8-9.48c-4.79-6.62-6.78-12.33-5.9-17,.71-3.77,3.25-6.94,8-10a13.5,13.5,0,0,1,10.7-1.8,1.5,1.5,0,0,0,2-1.44c0-.66,0-16.18,14.84-17.87,6.41-.73,13.37,4.51,21.27,16a1.5,1.5,0,0,0,2.48-1.7c-8.6-12.51-16.48-18.17-24.09-17.3-14.26,1.62-16.9,14.24-17.39,19a16.75,16.75,0,0,0-11.4,2.52c-5.4,3.47-8.44,7.38-9.31,12-1.05,5.55,1.05,11.85,6.42,19.27A85.36,85.36,0,0,0,33.26,108Z"/><path class="cls-1" d="M83.91,108a9.38,9.38,0,0,1-.4-2.75L83.78,37a1.85,1.85,0,0,1,1.86-1.85h0l5.77,0a7.36,7.36,0,0,0,14.22.06l16.22.06L121.56,108h3l.27-67.3,23.3,51.67A45.61,45.61,0,0,1,137.44,108h4.28a41.26,41.26,0,0,0,2.95-3.52,48.74,48.74,0,0,0,6.5-11.64,1.52,1.52,0,0,0,0-1.13l-26.39-58.5h0l0,0a.35.35,0,0,0,0-.08.65.65,0,0,0-.09-.16l-.08-.1-.11-.12-.11-.09-.11-.09-.12-.06-.14-.07-.14,0-.14,0-.17,0h-.1l-19-.08h0a1.51,1.51,0,0,0-1.5,1.44,4.25,4.25,0,0,1-4.31,4h0a4.25,4.25,0,0,1-4.3-4,1.5,1.5,0,0,0-1.5-1.44l-7.06,0a4.71,4.71,0,0,0-3.44,1.41A4.79,4.79,0,0,0,80.78,37l-.27,68.26a12.69,12.69,0,0,0,.31,2.76Z"/><path class="cls-1" d="M139.93,108a1.47,1.47,0,0,0-1.55-.44,1.44,1.44,0,0,0-.68.44Z"/><path class="cls-1" d="M183.18,103.92a37.37,37.37,0,0,1-2.06,4.1h3.43c.49-1,1-1.92,1.39-2.93,16.53-38.92-17.55-80.88-17.9-81.3a1.5,1.5,0,0,0-2.31,1.91C166.06,26.11,199,66.66,183.18,103.92Z"/><path class="cls-1" d="M174.57,108c6.94-8,7.7-19.81,7.73-20.4a1.5,1.5,0,1,0-3-.17c0,.14-.87,13.52-9,20.57Z"/><path class="cls-1" d="M187.61,108c1.62-17.42,4.35-38,7.89-56.1,1-5,2.82-8.25,5.62-9.91a11.32,11.32,0,0,1,5.82-1.38,38.69,38.69,0,0,1,11.2,2.24c5.35,1.72,10.59,3.88,12.59,8,1.39,2.87,1.19,6.58-.6,11.35A408.41,408.41,0,0,1,209.44,108h3.39A455.16,455.16,0,0,0,232.94,63.3c2.1-5.57,2.26-10,.5-13.7-2.5-5.18-8.39-7.67-14.38-9.58-6.56-2.11-14-3.82-19.46-.59-3.59,2.12-5.89,6-7,11.92C189,69.66,186.23,90.43,184.61,108Z"/></g></g></svg>