<svg xmlns="http://www.w3.org/2000/svg" viewBox="0 0 17.41 17.41"><defs><style>.cls-1{fill:#fff;}</style></defs><title>insta</title><g id="Слой_2" data-name="Слой 2"><g id="Foreground"><path class="cls-1" d="M8.7,6.89A1.82,1.82,0,1,0,10.52,8.7,1.81,1.81,0,0,0,8.7,6.89Z"/><path class="cls-1" d="M11.26,3.8H6.15A2.23,2.23,0,0,0,3.92,6v5.35a2.23,2.23,0,0,0,2.23,2.23h5.11a2.22,2.22,0,0,0,2.22-2.23V6A2.22,2.22,0,0,0,11.26,3.8ZM8.7,11.63A2.93,2.93,0,1,1,11.63,8.7,2.93,2.93,0,0,1,8.7,11.63Zm3.2-5.4a.77.77,0,1,1,.77-.77A.76.76,0,0,1,11.9,6.23Z"/><path class="cls-1" d="M14.73,0h-12A2.68,2.68,0,0,0,0,2.68V14.73a2.68,2.68,0,0,0,2.68,2.68H14.73a2.68,2.68,0,0,0,2.68-2.68v-12A2.68,2.68,0,0,0,14.73,0ZM14.6,11.38a3.34,3.34,0,0,1-3.34,3.34H6.15a3.34,3.34,0,0,1-3.34-3.34V6A3.34,3.34,0,0,1,6.15,2.69h5.11A3.34,3.34,0,0,1,14.6,6Z"/></g></g></svg>