<svg xmlns="http://www.w3.org/2000/svg" viewBox="0 0 237.79 94.01"><defs><style>.cls-1{fill:#fff;}</style></defs><title>Ресурс 1</title><g id="Слой_2" data-name="Слой 2"><g id="Слой_1-2" data-name="Слой 1"><path class="cls-1" d="M33.16.6H5.34A2.53,2.53,0,0,0,2.83,3.11V40.3a2.54,2.54,0,0,0,5.08,0V5.38H30.59V40.3a2.54,2.54,0,0,0,5.07,0V3.11A2.52,2.52,0,0,0,33.16.6Z"/><path class="cls-1" d="M63.75,43c12.12,0,21.31-9.07,21.31-21.49C85.06,8.78,75.87,0,63.75,0,51.34,0,42.44,9.38,42.44,21.49,42.44,34.21,51.64,43,63.75,43Zm0-38.2c9,0,15.94,7,15.94,16.71,0,9.44-6.39,16.72-15.94,16.72-9,0-15.93-7.22-15.93-16.72,0-9.73,6.86-16.71,15.93-16.71Z"/><path class="cls-1" d="M94.45,42.8A2.51,2.51,0,0,0,97,40.3v-14c2.09.18,4.6.24,6.27.24,10.21,0,15-6.33,15-13.14,0-6.5-3.52-13-15.46-13-1.91,0-5.67.06-8.41.12A2.53,2.53,0,0,0,91.84,3V40.22a2.53,2.53,0,0,0,2.48,2.58ZM97,5.38c2-.06,4.66-.12,6.33-.12,6.63,0,9.61,3.16,9.61,8.12,0,5.25-3.7,8.41-9.85,8.41-2.09,0-4.06-.12-6.09-.3Z"/><path class="cls-1" d="M127.24,42.39h30.92v4.77a2.39,2.39,0,1,0,4.78,0v-7a2.53,2.53,0,0,0-2.51-2.51h-3.16V2.75a2.54,2.54,0,0,0-5.07,0V37.61H129.81V2.75a2.54,2.54,0,0,0-5.07,0V39.91A2.52,2.52,0,0,0,127.24,42.39Z"/><path class="cls-1" d="M171.49,42.8c1.26,0,2.09-.65,3-1.85L198.78,9V40.3a2.54,2.54,0,0,0,5.08,0V3A2.49,2.49,0,0,0,201.59.3a2.94,2.94,0,0,0-.42,0c-1.25,0-2,.72-2.86,1.79L174,34V2.75a2.54,2.54,0,0,0-5.07,0V40.06A2.42,2.42,0,0,0,171,42.78,2.47,2.47,0,0,0,171.49,42.8Z"/><path class="cls-1" d="M235.24.54C232.85.54,230,.42,228,.42c-11.28,0-16.3,6.33-16.3,13.85A12.55,12.55,0,0,0,219.9,26L210.59,39.1a2.72,2.72,0,0,0-.54,1.55,2.08,2.08,0,0,0,2,2.15,1.47,1.47,0,0,0,.21,0,2.92,2.92,0,0,0,2.51-1.49l10.08-14.4h7.82V40.34a2.54,2.54,0,1,0,5.08,0V3.11A2.58,2.58,0,0,0,235.24.54Zm-2.57,21.55h-8.41A8.47,8.47,0,0,1,217,14c0-5,3.47-8.77,10-8.77,1.79,0,4.3.12,5.67.18Z"/><path class="cls-1" d="M30.89,86.66a2.77,2.77,0,0,0-1.45.41A15.92,15.92,0,0,1,21,89.33c-9.39,0-15.82-6.55-15.82-16.23s6.25-16.19,15.06-16.19a16.79,16.79,0,0,1,8.23,1.86,3.07,3.07,0,0,0,1.39.34,2.25,2.25,0,0,0,2.21-2.2,2.35,2.35,0,0,0-1.22-2,21,21,0,0,0-10.66-2.72C7.53,52.24,0,61.45,0,73.1,0,85.73,8.4,94,20.57,94A20,20,0,0,0,31.93,90.6a2.56,2.56,0,0,0,1.1-2,1.76,1.76,0,0,0-.4-1.16A2.16,2.16,0,0,0,30.89,86.66Z"/><path class="cls-1" d="M62.56,52.53a2.45,2.45,0,0,0-2.49,2.38V71.08a17.21,17.21,0,0,1-9.45,3.07c-4.92,0-8.51-2.61-8.51-9.62V54.91a2.47,2.47,0,0,0-4.93,0v11c0,9.44,5.74,12.92,12.17,12.92A19.05,19.05,0,0,0,60.07,75.7V91.4a2.47,2.47,0,0,0,4.93,0V54.91A2.44,2.44,0,0,0,62.56,52.53Z"/><path class="cls-1" d="M92,54.5a3,3,0,0,0-5.62,0l-15.53,36a3.16,3.16,0,0,0-.23,1,2.31,2.31,0,0,0,4.52.64l4.63-11.07H98.24l4.7,11.07a2.49,2.49,0,0,0,2.31,1.62,2.38,2.38,0,0,0,2.38-2.38v-.11a3.09,3.09,0,0,0-.17-1Zm-10.26,22L89,59.13l7.3,17.33Z"/><path class="cls-1" d="M140.06,86.66a2.77,2.77,0,0,0-1.45.41,15.92,15.92,0,0,1-8.4,2.26c-9.39,0-15.82-6.55-15.82-16.23s6.26-16.19,15.07-16.19a16.78,16.78,0,0,1,8.22,1.86,3.08,3.08,0,0,0,1.4.34,2,2,0,0,0,1.85-1,2.08,2.08,0,0,0,.35-1.1,2.35,2.35,0,0,0-1.22-2,21,21,0,0,0-10.66-2.72c-12.69,0-20.23,9.21-20.23,20.86,0,12.63,8.41,20.86,20.58,20.86a20,20,0,0,0,11.35-3.36,2.6,2.6,0,0,0,1.11-2,1.77,1.77,0,0,0-.41-1.16A2.15,2.15,0,0,0,140.06,86.66Z"/><path class="cls-1" d="M174.78,52.82H146a2.32,2.32,0,0,0,0,4.63h11.94v33.9a2.46,2.46,0,0,0,4.92,0V57.45H174.8a2.32,2.32,0,0,0,0-4.63Z"/><path class="cls-1" d="M192.93,67.59c-1.33,0-3.48.12-5.68.29v-13a2.46,2.46,0,0,0-4.92,0v36a2.41,2.41,0,0,0,2.39,2.43h0c2.09.06,4.64.12,7.07.12,10.37,0,16.4-4.87,16.4-13.39C208.23,72.46,203.42,67.59,192.93,67.59Zm-.52,21.32c-1.86,0-3.59-.11-5.16-.17V72.58a50,50,0,0,1,5.33-.35c6.55,0,10.43,2.72,10.43,8C203,86.08,199.07,88.91,192.41,88.91Z"/><path class="cls-1" d="M235.31,52.76c-2.32,0-5.1-.12-7.07-.12-11,0-15.82,6.14-15.82,13.45a12.21,12.21,0,0,0,8,11.36l-9,12.75a2.55,2.55,0,0,0-.52,1.5,2,2,0,0,0,1.9,2.09h.25a2.82,2.82,0,0,0,2.43-1.45l9.79-14h7.6v13a2.46,2.46,0,1,0,4.92,0V55.24A2.49,2.49,0,0,0,235.31,52.76Zm-2.49,20.92h-8.18a8.23,8.23,0,0,1-7-7.88c0-4.81,3.36-8.52,9.68-8.52,1.74,0,4.17.11,5.51.17Z"/></g></g></svg>