<svg id="Слой_1" data-name="Слой 1" xmlns="http://www.w3.org/2000/svg" xmlns:xlink="http://www.w3.org/1999/xlink" width="512" height="512" viewBox="0 0 512 512"><defs><clipPath id="clip-path" transform="translate(0 0)"><rect width="512" height="512" fill="none"/></clipPath></defs><title>middle</title><g clip-path="url(#clip-path)"><path d="M256,512A256,256,0,0,1,75,75,256,256,0,0,1,437,437a254.33,254.33,0,0,1-181,75m0-482A226,226,0,0,0,96.2,415.81,226,226,0,1,0,415.8,96.2,224.51,224.51,0,0,0,256,30" transform="translate(0 0)"/><path d="M178.67,250a40.95,40.95,0,1,1,40.95-40.95A41,41,0,0,1,178.67,250m0-51.9a10.95,10.95,0,1,0,10.95,10.95,11,11,0,0,0-10.95-10.95" transform="translate(0 0)"/><path d="M332.22,250a40.95,40.95,0,1,1,40.95-40.95A41,41,0,0,1,332.22,250m0-51.9a10.95,10.95,0,1,0,10.95,10.95,11,11,0,0,0-10.95-10.95" transform="translate(0 0)"/><path d="M320.89,378.73H189.11a12,12,0,0,1-12-12v-2.94a12,12,0,0,1,12-12H320.89a12,12,0,0,1,12,12v2.94a12,12,0,0,1-12,12" transform="translate(0 0)"/></g></svg>