<svg xmlns="http://www.w3.org/2000/svg" viewBox="0 0 17.41 17.41"><defs><style>.cls-1{fill:#fff;}</style></defs><title>Ресурс 1</title><g id="Слой_2" data-name="Слой 2"><g id="Foreground"><path class="cls-1" d="M14.73,0h-12A2.68,2.68,0,0,0,0,2.68V14.73a2.68,2.68,0,0,0,2.68,2.68H14.73a2.68,2.68,0,0,0,2.68-2.68v-12A2.68,2.68,0,0,0,14.73,0Zm-.44,12.26H12.83c-.48,0-.54-.35-1.42-1.19s-1.05-.79-1.23-.79-.27.12-.27.4V11.8c0,.33-.19.46-1,.46A4.93,4.93,0,0,1,5.18,10a9.41,9.41,0,0,1-2-4.12.31.31,0,0,1,.33-.32H4.8c.34,0,.47.1.59.46C6,7.78,7.05,9.33,7.5,9.33c.17,0,.19-.14.19-.5V7.05c0-.87-.49-.94-.49-1.26,0-.13.1-.22.26-.22H9.55c.28,0,.32.1.32.44V8.43c0,.28.05.38.18.38s.29-.09.57-.4A12.21,12.21,0,0,0,12.18,6a.48.48,0,0,1,.5-.32H14c.26,0,.37.14.32.39a15.54,15.54,0,0,1-1.65,2.82c-.14.22-.2.34,0,.55s.58.56.84.92a3.55,3.55,0,0,1,1.09,1.62C14.58,12.19,14.44,12.26,14.29,12.26Z"/></g></g></svg>