<svg xmlns="http://www.w3.org/2000/svg" viewBox="0 0 450.07 125.26" width="138px"><defs><style>.cls-1{fill:#fff;}</style></defs><title>apple</title><g id="Слой_2" data-name="Слой 2"><g id="Layer_1" data-name="Layer 1"><path class="cls-1" d="M101.05,93.94a84,84,0,0,1-7.64,14.26c-5,7.55-12,17-20.62,17-7.7.07-9.67-5-20.12-4.95s-12.64,5-20.34,5c-8.66-.08-15.29-8.58-20.25-16.13C-1.79,88-3.24,63.22,5.31,50.05,11.39,40.68,21,35.2,30,35.2s15,5,22.55,5c7.36,0,11.85-5.05,22.47-5.05,8,0,16.53,4.37,22.59,11.93C77.77,58,81,86.36,101.05,93.94Z"/><path class="cls-1" d="M67,26.75c3.86-4.95,6.79-11.94,5.73-19.09-6.3.44-13.67,4.45-18,9.67C50.81,22.08,47.59,29.12,48.85,36,55.72,36.17,62.84,32.06,67,26.75Z"/><path class="cls-1" d="M143.32,49.73l-19.88,58.5h9.11l5.93-18h19.24l6.11,18h9.35l-20-58.5ZM148,59.35c.67,2.61,1.39,5.32,2.32,8.25l5.36,15.51H140.47l5.29-15.61C146.56,65,147.32,62.23,148,59.35Z"/><path class="cls-1" d="M198.9,64.89c-6,0-10.86,2.33-14.07,6.75l-.36-5.82h-8.09l.05.75c.23,3.62.33,7.61.33,13.34V125h8.85V104a15.55,15.55,0,0,0,12.1,5.2,18.29,18.29,0,0,0,13.42-5.7c3.87-4.1,5.92-10,5.92-17,0-6.22-1.78-11.59-5.14-15.54A16.85,16.85,0,0,0,198.9,64.89Zm-2.21,7.33c7.89,0,11.42,7.31,11.42,14.55,0,9.35-4.5,15.15-11.75,15.15a10.73,10.73,0,0,1-10.43-8.21,11.09,11.09,0,0,1-.32-2.87V83.72a13,13,0,0,1,.29-2.18c0-.25.09-.49.12-.72A11.21,11.21,0,0,1,196.69,72.22Z"/><path class="cls-1" d="M244.48,64.89c-6,0-10.86,2.33-14.08,6.75l-.35-5.82H222l0,.75c.24,3.63.35,7.61.35,13.34V125h8.85V104a15.5,15.5,0,0,0,12.09,5.2,18.29,18.29,0,0,0,13.42-5.7c3.87-4.1,5.92-10,5.92-17,0-6.22-1.78-11.59-5.15-15.54A16.81,16.81,0,0,0,244.48,64.89Zm-2.21,7.33c7.89,0,11.42,7.31,11.42,14.55,0,9.35-4.5,15.15-11.75,15.15a10.73,10.73,0,0,1-10.43-8.21,11.13,11.13,0,0,1-.31-2.87V83.72a13,13,0,0,1,.28-2.19c0-.24.09-.48.13-.71A11.19,11.19,0,0,1,242.27,72.22Z"/><path class="cls-1" d="M301.58,74.52c-8.26-3.2-10.91-5.72-10.91-10.37,0-3.91,3.11-7.86,10.06-7.86a20.1,20.1,0,0,1,10.39,2.61l.75.46,2.5-7.38-.49-.29c-1.48-.87-5.71-2.9-12.89-2.9-11.29,0-19.17,6.67-19.17,16.21,0,7.69,4.93,13.07,15.53,16.92,7.51,2.81,10.31,5.68,10.31,10.61,0,5.59-4.31,9-11.25,9A24.23,24.23,0,0,1,283.65,98l-.77-.49L280.51,105l.43.29c3.35,2.23,9.64,3.84,15,3.84,15.22,0,20.61-9.28,20.61-17.22C316.51,83.75,312.19,78.7,301.58,74.52Z"/><path class="cls-1" d="M332.44,55.75l-8.68,2.72v7.35h-6.35V72.9h6.35V94.57c0,5.24,1,8.91,3.07,11.23a11.34,11.34,0,0,0,8.56,3.36,20.66,20.66,0,0,0,6.84-1.06l.5-.17-.42-7.09-.85.26a13.15,13.15,0,0,1-4.12.48c-3.43,0-4.9-2.17-4.9-7.27V72.9h10.68V65.82H332.44Z"/><path class="cls-1" d="M365.06,64.89c-12.39,0-21,9.25-21,22.48,0,12.83,8.37,21.79,20.36,21.79h.08c10.14,0,21-7.06,21-22.56,0-6.3-1.95-11.71-5.64-15.65A19.72,19.72,0,0,0,365.06,64.89Zm-.26,7c8,0,11.59,7.76,11.59,15,0,8.87-4.95,15.31-11.76,15.31h-.08c-6.71,0-11.59-6.33-11.59-15C353,79.53,356.62,71.88,364.8,71.88Z"/><path class="cls-1" d="M412.61,65.3l-.53-.13a8.32,8.32,0,0,0-2.21-.28A12.62,12.62,0,0,0,398.78,72l-.26-6.2h-7.95l.05.75c.24,3.5.34,7.44.34,12.74l-.08,28.92h8.85V85.67a22.79,22.79,0,0,1,.24-3.43c1-5.42,4.66-8.92,9.31-8.92a21.21,21.21,0,0,1,2.38.15l.95.1Z"/><path class="cls-1" d="M432.51,64.81c-11.79,0-20,9.41-20,22.9,0,13,8.19,21.37,20.87,21.37a34,34,0,0,0,14-2.69l.53-.24-1.7-6.6-.74.3a27.45,27.45,0,0,1-11.09,2c-3.84,0-12.71-1.26-13.26-12.83l28.58.09.11-.57a19.6,19.6,0,0,0,.27-3.69C450.07,75.59,445.47,64.81,432.51,64.81Zm-.59,6.73a8.77,8.77,0,0,1,6.5,2.48c2.54,2.59,3,6.41,3,8.24H421.28C422.1,77.15,425.3,71.54,431.92,71.54Z"/><path class="cls-1" d="M141.11,31.18a15.6,15.6,0,0,1-11.29-4.36,14.89,14.89,0,0,1-4.52-11.23,14.89,14.89,0,0,1,4.52-11.23A15.6,15.6,0,0,1,141.11,0a13.51,13.51,0,0,1,12.12,6.78l-4.52,2.3a8.87,8.87,0,0,0-3.19-3.16,8.52,8.52,0,0,0-4.41-1.22,9.87,9.87,0,0,0-7.43,3.07,10.84,10.84,0,0,0-3,7.82,10.84,10.84,0,0,0,3,7.82,9.87,9.87,0,0,0,7.43,3.07,8.46,8.46,0,0,0,4.43-1.22,8.89,8.89,0,0,0,3.17-3.16l4.52,2.3A13.65,13.65,0,0,1,141.11,31.18Z"/><path class="cls-1" d="M178.21,30.64h-6l-6.69-9-3,3.11v5.88h-4.74V8.81h4.74V19.34l9.63-10.53H178L169,18.71Z"/><path class="cls-1" d="M200.09,30.64h-4.75V28.29a8.87,8.87,0,0,1-7.05,2.89A8,8,0,0,1,183,29.26,6.55,6.55,0,0,1,180.7,24,6.36,6.36,0,0,1,183,18.66a8.32,8.32,0,0,1,5.31-1.8q4.65,0,7.05,2.8V16.4a3.57,3.57,0,0,0-1.4-3,5.91,5.91,0,0,0-3.71-1.08,9,9,0,0,0-6.46,2.75l-1.94-3.3A12.79,12.79,0,0,1,191,8.27a10.64,10.64,0,0,1,6.56,1.9c1.68,1.26,2.53,3.27,2.53,6Zm-10-2.71c2.38,0,4.12-.76,5.2-2.26v-3.3c-1.08-1.51-2.82-2.26-5.2-2.26a5.08,5.08,0,0,0-3.34,1.08A3.55,3.55,0,0,0,185.49,24a3.47,3.47,0,0,0,1.31,2.83A5.18,5.18,0,0,0,190.14,27.93Z"/><path class="cls-1" d="M205.92,8.81h4.74v5.88a4.15,4.15,0,0,0,1.24,3.43,6.36,6.36,0,0,0,4,1,12.06,12.06,0,0,0,4.79-.82V8.81h4.74V30.64h-4.74v-8.5a14.06,14.06,0,0,1-6.28,1.18c-3,0-5.14-.57-6.47-1.72a6.51,6.51,0,0,1-2-5.2Z"/><path class="cls-1" d="M250.07,30.64h-4.75V28.29a8.87,8.87,0,0,1-7,2.89A8,8,0,0,1,233,29.26a6.55,6.55,0,0,1-2.3-5.31A6.36,6.36,0,0,1,233,18.66a8.32,8.32,0,0,1,5.31-1.8q4.65,0,7,2.8V16.4a3.57,3.57,0,0,0-1.4-3,5.91,5.91,0,0,0-3.71-1.08,9,9,0,0,0-6.46,2.75l-1.94-3.3A12.79,12.79,0,0,1,241,8.27a10.59,10.59,0,0,1,6.55,1.9c1.69,1.26,2.54,3.27,2.54,6Zm-9.95-2.71c2.38,0,4.12-.76,5.2-2.26v-3.3c-1.08-1.51-2.82-2.26-5.2-2.26a5.08,5.08,0,0,0-3.34,1.08A3.55,3.55,0,0,0,235.47,24a3.47,3.47,0,0,0,1.31,2.83A5.18,5.18,0,0,0,240.12,27.93Z"/><path class="cls-1" d="M265.39,30.64h-4.75V13H254.4V8.81h17.27V13h-6.28Z"/><path class="cls-1" d="M276,8.81h4.75v7.91h7.73a6.66,6.66,0,0,1,7.23,7,6.89,6.89,0,0,1-1.92,4.95,7,7,0,0,1-5.31,2H276Zm11.89,12.07h-7.14v5.6h7.14a3,3,0,0,0,2.19-.77,2.69,2.69,0,0,0,.79-2,2.69,2.69,0,0,0-.79-2A3,3,0,0,0,287.89,20.88Z"/><path class="cls-1" d="M326.3,30.64H312.92V8.81H326a6.78,6.78,0,0,1,4.75,1.58,5.27,5.27,0,0,1,1.72,4,5,5,0,0,1-1,3.2,5.05,5.05,0,0,1-2.62,1.77,5.07,5.07,0,0,1,2.93,1.92,5.38,5.38,0,0,1,1.18,3.41A5.61,5.61,0,0,1,331.16,29,6.78,6.78,0,0,1,326.3,30.64ZM325.17,17.4a2.57,2.57,0,0,0,1.79-.61,2.07,2.07,0,0,0,.65-1.56,2.18,2.18,0,0,0-.65-1.65,2.52,2.52,0,0,0-1.79-.61h-7.5V17.4Zm.14,9.08a2.86,2.86,0,0,0,2-.65A2.29,2.29,0,0,0,328,24a2.37,2.37,0,0,0-.73-1.76,2.68,2.68,0,0,0-2-.72h-7.64v4.92Z"/></g></g></svg>