<svg fil="#483d3c" xmlns="http://www.w3.org/2000/svg" width="20.018" height="10.991" viewBox="0 0 20.018 10.991"><g transform="translate(-730.988 -44.986)"><g fill="#483d3c" stroke-linecap="round" stroke-linejoin="round"><path d="M 740.7435913085938 55.70424652099609 L 740.3604125976563 55.33920669555664 L 731.6431884765625 47.03430557250977 L 731.3011474609375 46.70843887329102 L 731.6071166992188 46.34846878051758 L 732.1903076171875 45.66236877441406 L 732.5330200195313 45.25917816162109 L 732.9161987304688 45.62418746948242 L 741.6334228515625 53.92898559570313 L 741.9754638671875 54.25483703613281 L 741.6694946289063 54.61479568481445 L 741.0863037109375 55.30099868774414 L 740.7435913085938 55.70424652099609 Z" stroke="none"/><path d="M 732.5712890625 45.98619842529297 L 731.9880981445313 46.67229843139648 L 740.705322265625 54.97719573974609 L 741.2885131835938 54.29099655151367 L 732.5712890625 45.98619842529297 M 732.5713500976563 44.9861946105957 C 732.8274536132813 44.9861946105957 733.0746459960938 45.08457183837891 733.2610473632813 45.26216888427734 L 741.978271484375 53.56696701049805 C 742.3621826171875 53.9327278137207 742.3938598632813 54.5345458984375 742.0504760742188 54.9385986328125 L 741.46728515625 55.62479782104492 C 741.2891845703125 55.83438873291016 741.0325927734375 55.96135711669922 740.7578735351563 55.9758186340332 C 740.7403564453125 55.97674179077148 740.7227783203125 55.97719955444336 740.7052612304688 55.97719955444336 C 740.4491577148438 55.97719955444336 740.2019653320313 55.87883377075195 740.0155639648438 55.70121765136719 L 731.29833984375 47.39631652832031 C 730.9143676757813 47.03054809570313 730.8827514648438 46.42868804931641 731.2261352539063 46.0246467590332 L 731.809326171875 45.33854675292969 C 731.9874877929688 45.12897872924805 732.2440795898438 45.00202560424805 732.5187377929688 44.98757553100586 C 732.5363159179688 44.98665237426758 732.5538330078125 44.9861946105957 732.5713500976563 44.9861946105957 Z" stroke="none" fill="#483d3c"/></g><g fill="#483d3c" stroke-linecap="round" stroke-linejoin="round"><path d="M 741.250244140625 55.70424652099609 L 740.9075317382813 55.30099868774414 L 740.3243408203125 54.61479568481445 L 740.0183715820313 54.25483703613281 L 740.3604125976563 53.92898559570313 L 749.0775756835938 45.62418746948242 L 749.4607543945313 45.2591552734375 L 749.803466796875 45.66238784790039 L 750.3865966796875 46.34848785400391 L 750.6925659179688 46.70844650268555 L 750.3505249023438 47.03430557250977 L 741.6334228515625 55.33920669555664 L 741.250244140625 55.70424652099609 Z" stroke="none"/><path d="M 749.4224853515625 45.98619842529297 L 740.705322265625 54.29099655151367 L 741.2885131835938 54.97719573974609 L 750.005615234375 46.67229843139648 L 749.4224853515625 45.98619842529297 M 749.4224243164063 44.9861946105957 C 749.43994140625 44.9861946105957 749.4574584960938 44.98665237426758 749.4750366210938 44.98757553100586 C 749.749755859375 45.00203704833984 750.00634765625 45.12899780273438 750.1844482421875 45.33858871459961 L 750.767578125 46.02468872070313 C 751.1109619140625 46.42871856689453 751.079345703125 47.03055572509766 750.6953735351563 47.39631652832031 L 741.978271484375 55.70121765136719 C 741.7918701171875 55.87881088256836 741.544677734375 55.97719955444336 741.28857421875 55.97719955444336 C 741.2710571289063 55.97719955444336 741.2534790039063 55.97674179077148 741.2359619140625 55.9758186340332 C 740.9612426757813 55.96135711669922 740.7046508789063 55.83438873291016 740.5265502929688 55.62479782104492 L 739.943359375 54.9385986328125 C 739.5999755859375 54.5345573425293 739.6316528320313 53.9327278137207 740.0155639648438 53.56697845458984 L 748.7327270507813 45.26217651367188 C 748.9191284179688 45.0845832824707 749.1663208007813 44.9861946105957 749.4224243164063 44.9861946105957 Z" stroke="none" fill="#483d3c"/></g></g></svg>