<?xml version="1.0" encoding="utf-8"?>
<!-- Generator: Adobe Illustrator 22.0.1, SVG Export Plug-In . SVG Version: 6.00 Build 0)  -->
<svg version="1.1" id="Слой_1" xmlns="http://www.w3.org/2000/svg" xmlns:xlink="http://www.w3.org/1999/xlink" x="0px" y="0px"
	 viewBox="0 0 57.2 57" style="enable-background:new 0 0 57.2 57;" xml:space="preserve">
<style type="text/css">
	.st0{fill:#FFFFFF;}
</style>
<g transform="translate(-2098.84 -532)">
	<path class="st0" d="M2127.4,589c-15.8,0-28.6-12.8-28.6-28.5s12.8-28.5,28.6-28.5c15.8,0,28.6,12.8,28.6,28.5
		S2143.2,589,2127.4,589z M2127.4,534c-14.7,0-26.6,11.9-26.6,26.5s11.9,26.5,26.6,26.5s26.6-11.9,26.6-26.5S2142.1,534,2127.4,534z
		"/>
	<path class="st0" d="M2136.2,560.8c-0.3,0-0.5-0.1-0.7-0.3l-13.8-13.8c-0.2-0.2-0.3-0.4-0.3-0.7c0-0.3,0.1-0.5,0.3-0.7l0.8-0.8
		c0.4-0.4,1-0.4,1.4,0l13.8,13.8c0.2,0.2,0.3,0.4,0.3,0.7c0,0.3-0.1,0.5-0.3,0.7l-0.8,0.8C2136.7,560.7,2136.5,560.8,2136.2,560.8z"
		/>
	<path class="st0" d="M2123.2,575.7c-0.3,0-0.5-0.1-0.7-0.3l-0.8-0.8c-0.2-0.2-0.3-0.4-0.3-0.7c0-0.3,0.1-0.5,0.3-0.7l13.8-13.7
		c0.4-0.4,1-0.4,1.4,0l0.8,0.8c0.2,0.2,0.3,0.4,0.3,0.7c0,0.3-0.1,0.5-0.3,0.7l-13.8,13.8C2123.7,575.6,2123.5,575.7,2123.2,575.7z"
		/>
</g>
</svg>
