<svg xmlns="http://www.w3.org/2000/svg" viewBox="0 0 139.67 201" width="116" height="166"><defs><style>.cls-1{fill:#ec6606;}</style></defs><title>info-menu</title><g id="Слой_2" data-name="Слой 2"><g id="Слой_1-2" data-name="Слой 1"><path class="cls-1" d="M138.17,201H1.5A1.5,1.5,0,0,1,0,199.5V20.44a1.5,1.5,0,0,1,1.5-1.5H138.17a1.5,1.5,0,0,1,1.5,1.5V199.5A1.5,1.5,0,0,1,138.17,201ZM3,198H136.67V21.94H3Z"/><path class="cls-1" d="M1.5,21.94A1.5,1.5,0,0,1,1,19L52.65.09a1.5,1.5,0,0,1,2,1.41V20.17a1.5,1.5,0,0,1-3,0V3.65L2,21.85A1.58,1.58,0,0,1,1.5,21.94Z"/><path class="cls-1" d="M34.06,144.06a2,2,0,0,1-1.58.94,2,2,0,0,1-1.57-.94L23.49,133.9v18.42a1.49,1.49,0,0,1-3,0V130.75a1.72,1.72,0,0,1,1.71-1.89A2.28,2.28,0,0,1,24.15,130l8.58,11.63L41,129.87a2.07,2.07,0,0,1,1.72-1,1.64,1.64,0,0,1,1.71,1.68v21.78a1.47,1.47,0,0,1-1.47,1.47,1.49,1.49,0,0,1-1.51-1.47V133.69Z"/><path class="cls-1" d="M42.92,154a1.74,1.74,0,0,1-1.76-1.72V134.48l-6.9,9.72h0a2,2,0,0,1-3.55,0l-7-9.54v17.65a1.74,1.74,0,0,1-3.48,0V130.75a2,2,0,0,1,2-2.14,2.52,2.52,0,0,1,2.13,1.22l8.37,11.35,8-11.45a2.32,2.32,0,0,1,1.93-1.12,1.88,1.88,0,0,1,2,1.93v21.78A1.72,1.72,0,0,1,42.92,154Zm-1.51-20.6h.08a.26.26,0,0,1,.17.24v18.63a1.24,1.24,0,0,0,1.26,1.22,1.22,1.22,0,0,0,1.22-1.22V130.54a1.4,1.4,0,0,0-1.46-1.43,1.82,1.82,0,0,0-1.51.9l-8.24,11.74a.23.23,0,0,1-.2.11.24.24,0,0,1-.2-.11L24,130.13a2,2,0,0,0-1.73-1,1.48,1.48,0,0,0-1.46,1.64v21.57a1.24,1.24,0,0,0,2.48,0V133.9a.25.25,0,0,1,.17-.24.27.27,0,0,1,.28.09l7.42,10.16a1.77,1.77,0,0,0,1.37.84,1.72,1.72,0,0,0,1.38-.84l7.35-10.36A.26.26,0,0,1,41.41,133.44Zm-7.35,10.62h0Z"/><path class="cls-1" d="M64.56,150.75a1.4,1.4,0,0,1,0,2.8H53.21a1.49,1.49,0,0,1-1.47-1.47V130.51A1.49,1.49,0,0,1,53.21,129h11a1.41,1.41,0,0,1,0,2.81H54.72v7.91h8.44a1.4,1.4,0,0,1,0,2.8H54.72v8.2Z"/><path class="cls-1" d="M64.56,153.8H53.21a1.72,1.72,0,0,1-1.72-1.72V130.51a1.73,1.73,0,0,1,1.72-1.73h11a1.66,1.66,0,0,1,0,3.31H55v7.41h8.19a1.65,1.65,0,0,1,0,3.3H55v7.7h9.59a1.65,1.65,0,0,1,0,3.3ZM53.21,129.28A1.24,1.24,0,0,0,52,130.51v21.57a1.22,1.22,0,0,0,1.22,1.22H64.56a1.15,1.15,0,0,0,0-2.3H54.72a.25.25,0,0,1-.25-.25v-8.2a.25.25,0,0,1,.25-.25h8.44a1.15,1.15,0,0,0,0-2.3H54.72a.25.25,0,0,1-.25-.25v-7.91a.25.25,0,0,1,.25-.25h9.49a1.16,1.16,0,0,0,0-2.31Z"/><path class="cls-1" d="M89.56,130.23a1.4,1.4,0,0,1,2.8,0v22.06c0,.87-.49,1.5-1.26,1.5a2.19,2.19,0,0,1-1.78-1.08L74.68,134.25v18.18a1.4,1.4,0,0,1-2.8,0V130.51c0-.85.42-1.65,1.36-1.65.74,0,1.19.35,1.89,1.26l14.43,18.24Z"/><path class="cls-1" d="M91.1,154a2.43,2.43,0,0,1-2-1.18L74.93,135v17.46a1.65,1.65,0,0,1-3.3,0V130.51a1.69,1.69,0,0,1,1.61-1.9c.89,0,1.4.46,2.09,1.36l14,17.68V130.23a1.65,1.65,0,0,1,3.3,0v22.06A1.57,1.57,0,0,1,91.1,154ZM74.68,134a.24.24,0,0,1,.19.1l14.64,18.45c.61.75,1,1,1.59,1s1-.49,1-1.25V130.23a1.15,1.15,0,0,0-2.3,0v18.13a.25.25,0,0,1-.45.16L74.94,130.27c-.69-.89-1.09-1.16-1.7-1.16-.82,0-1.11.72-1.11,1.4v21.92a1.15,1.15,0,0,0,2.3,0V134.25a.24.24,0,0,1,.17-.23Z"/><path class="cls-1" d="M109.52,151.06c4,0,6.51-2.77,6.51-8.33V130.29a1.49,1.49,0,0,1,3,0v13c0,7.5-4.48,10.54-9.49,10.54-5.88,0-10.16-3.6-10.16-10.78V130.29a1.48,1.48,0,0,1,1.51-1.43,1.46,1.46,0,0,1,1.47,1.43v12.23C102.34,147.84,104.93,151.06,109.52,151.06Z"/><path class="cls-1" d="M109.52,154.11c-6.52,0-10.41-4.12-10.41-11V130.29a1.74,1.74,0,0,1,3.48,0v12.23c0,5.27,2.53,8.29,6.93,8.29,4,0,6.26-2.87,6.26-8.08V130.29a1.74,1.74,0,0,1,3.48,0v13C119.26,148.54,116.7,154.11,109.52,154.11Zm-8.65-25a1.24,1.24,0,0,0-1.26,1.18v12.79c0,6.59,3.71,10.53,9.91,10.53,2.17,0,9.24-.74,9.24-10.29v-13a1.22,1.22,0,0,0-1.22-1.18,1.24,1.24,0,0,0-1.26,1.18v12.44c0,5.53-2.4,8.58-6.76,8.58-4.65,0-7.43-3.29-7.43-8.79V130.29A1.22,1.22,0,0,0,100.87,129.11Z"/><path class="cls-1" d="M101.06,73.26a1.55,1.55,0,0,1-.31,0,1.52,1.52,0,0,1-1.2-1.45c0-.09-.22-9.61-5.33-12.56a1.48,1.48,0,0,1-.55-2,1.5,1.5,0,0,1,2-.56c3.9,2.25,5.58,7,6.29,10.55a25.9,25.9,0,0,1,11.31-8.53,1.5,1.5,0,0,1,1,2.83h0c-.08,0-8.31,3-11.88,10.9A1.48,1.48,0,0,1,101.06,73.26Z"/><path class="cls-1" d="M101.07,73.27a1.54,1.54,0,0,1-.91-.31,1.51,1.51,0,0,1-.46-1.81,25,25,0,0,0,1.37-15.74,1.5,1.5,0,0,1,2.88-.85,27.75,27.75,0,0,1,0,13.52c3.41-1.89,8.59-3.82,13.29-1.82a1.49,1.49,0,0,1,.79,2,1.5,1.5,0,0,1-2,.8c-6-2.57-13.93,3.84-14,3.9A1.51,1.51,0,0,1,101.07,73.27Z"/><path class="cls-1" d="M94.49,113.24A26.29,26.29,0,0,1,83.72,111a27.31,27.31,0,0,1-14.35-15.8,29.18,29.18,0,0,1-.12-20.32h0C71.89,68,75.73,63.92,80.66,62.65c7.8-2,15.76,3.75,18.82,6.32a10.8,10.8,0,0,0,5.14,2.37c3,.5,13,2.73,16.83,10.25,2.31,4.49,1.92,9.91-1.13,16.12C116.05,106.4,105.61,113.24,94.49,113.24ZM84,65.24a10.3,10.3,0,0,0-2.58.32c-3.94,1-7.09,4.5-9.37,10.36h0C67.9,86.6,72.18,102.49,85,108.21c13,5.82,27.64-1.56,32.68-11.83,2.61-5.3,3-9.82,1.15-13.43-2.55-5-9.25-7.74-14.66-8.65a13.88,13.88,0,0,1-6.57-3C95.71,69.72,89.86,65.24,84,65.24ZM70.64,75.38h0Z"/><path class="cls-1" d="M106.13,83.05a1.61,1.61,0,0,1-.48-.08,13.71,13.71,0,0,0-3.71-.67A13.78,13.78,0,0,1,96.69,81,16.35,16.35,0,0,1,93,78.29,34.79,34.79,0,0,0,90.32,76a1.5,1.5,0,0,1,1.77-2.42,38.32,38.32,0,0,1,3,2.47A13.84,13.84,0,0,0,98,78.32a10.88,10.88,0,0,0,4.23,1,16.75,16.75,0,0,1,4.42.82,1.5,1.5,0,0,1-.48,2.92Z"/><path class="cls-1" d="M83.44,100.53a1.5,1.5,0,0,1-1.1-.48c-.39-.42-9.59-10.52-4.08-23.53A1.5,1.5,0,0,1,81,77.69C76.26,88.93,84.45,97.92,84.54,98a1.5,1.5,0,0,1-.08,2.12A1.48,1.48,0,0,1,83.44,100.53Z"/><path class="cls-1" d="M23.25,95.3A8.43,8.43,0,0,1,20.89,95a9.25,9.25,0,0,1-6.32-7.27c-2.34-12,6.29-23.17,16-27.94s23.69-5,31.86,4.17a9.24,9.24,0,0,1,2,9.44,7.71,7.71,0,0,1-6.3,5.05A51.23,51.23,0,0,0,37.38,86,51.82,51.82,0,0,0,28.78,93,7.7,7.7,0,0,1,23.25,95.3Zm21-35.89a27.28,27.28,0,0,0-12.33,3C20.41,68.07,16,79.11,17.52,87.1a6.25,6.25,0,0,0,4.23,5,4.81,4.81,0,0,0,4.9-1.21h0a54.25,54.25,0,0,1,9.1-7.35A53.68,53.68,0,0,1,47,78a54.74,54.74,0,0,1,10.75-2.6,4.77,4.77,0,0,0,3.9-3.12,6.3,6.3,0,0,0-1.44-6.4C56.79,62.07,51,59.41,44.26,59.41Z"/><path class="cls-1" d="M54.93,116.15l-.6,0a14.15,14.15,0,0,1-9.83-5c-5.53-6.42-9.17-23.94-9.56-25.91a1.5,1.5,0,1,1,2.94-.59c1.38,6.88,4.81,19.8,8.89,24.54a11.11,11.11,0,0,0,7.71,4,8.52,8.52,0,0,0,6.38-2.37,9.25,9.25,0,0,0,.19-13.27l-5.56-5.56c-3.27-3.33-6.75-9-8.23-11.37L46.9,80a1.5,1.5,0,0,1,2.55-1.58l.36.58c1.43,2.32,4.79,7.75,7.81,10.83l5.55,5.55a12.25,12.25,0,0,1-.25,17.57A11.56,11.56,0,0,1,54.93,116.15Z"/><path class="cls-1" d="M51,69.54a1.46,1.46,0,0,1-.61-.13,16.57,16.57,0,0,0-12.78-.58L36.71,66a19.53,19.53,0,0,1,14.86.72A1.5,1.5,0,0,1,51,69.54ZM37.12,67.39h0Z"/></g></g></svg>