<svg xmlns="http://www.w3.org/2000/svg" width="20.018" height="10.991" viewBox="0 0 20.018 10.991">
    <g fill="#483d3c" stroke-linecap="round" stroke-linejoin="round">
        <path d="M9.756 10.718l-.384-.365L.655 2.048l-.342-.326.306-.36.583-.686.343-.403.383.365 8.717 8.305.342.326-.306.36-.583.686-.342.403z"/>
        <path d="M1.583 1L1 1.686l8.717 8.305.584-.686L1.583 1m0-1a1 1 0 0 1 .69.276l8.717 8.305a1 1 0 0 1 .072 1.372l-.583.686a1 1 0 0 1-1.451.076L.31 2.41A1 1 0 0 1 .238 1.04L.821.353A1 1 0 0 1 1.583 0z"/>
        <g>
            <path d="M10.262 10.718l-.342-.403-.584-.686-.306-.36.342-.326L18.09.638l.383-.365.342.403.584.686.306.36-.342.326-8.718 8.305-.383.365z"/>
            <path d="M18.434 1L9.717 9.305l.584.686 8.717-8.305L18.434 1m0-1a1.002 1.002 0 0 1 .762.353l.584.686a1 1 0 0 1-.073 1.371l-8.717 8.305a1 1 0 0 1-1.451-.076l-.584-.686a1 1 0 0 1 .073-1.372L17.745.276a1 1 0 0 1 .69-.276z"/>
        </g>
    </g>
</svg>
