<svg xmlns="http://www.w3.org/2000/svg" xmlns:xlink="http://www.w3.org/1999/xlink" width="71" height="69" viewBox="0 0 71 69">
    <defs>
        <path id="a" d="M2668.5 1581.813c18.329 0 33.188 14.522 33.188 32.437s-14.859 32.438-33.188 32.438-33.188-14.523-33.188-32.438c0-17.915 14.86-32.437 33.188-32.437z"/>
        <path id="b" d="M2653.407 1598.956l.85-.821 14.433 13.934-.85.82z"/>
        <path id="c" d="M2653.407 1627.163l.85.821 14.433-13.933-.85-.821z"/>
        <path id="d" d="M2684.984 1598.956l-.85-.821-14.433 13.934.85.82z"/>
        <path id="e" d="M2684.984 1627.163l-.85.821-14.433-13.933.85-.821z"/>
    </defs>
    <use fill="#fff" fill-opacity="0" stroke="#fff" stroke-miterlimit="50" stroke-width="3" xlink:href="#a" transform="translate(-2633 -1580)"/>
    <use fill="#fff" fill-opacity="0" stroke="#fff" stroke-linejoin="round" stroke-miterlimit="50" stroke-width="3" xlink:href="#b" transform="translate(-2633 -1580)"/>
    <use fill="#fff" fill-opacity="0" stroke="#fff" stroke-linejoin="round" stroke-miterlimit="50" stroke-width="3" xlink:href="#c" transform="translate(-2633 -1580)"/>
    <use fill="#fff" fill-opacity="0" stroke="#fff" stroke-linejoin="round" stroke-miterlimit="50" stroke-width="3" xlink:href="#d" transform="translate(-2633 -1580)"/>
    <use fill="#fff" fill-opacity="0" stroke="#fff" stroke-linejoin="round" stroke-miterlimit="50" stroke-width="3" xlink:href="#e" transform="translate(-2633 -1580)"/>
</svg>
