<svg xmlns="http://www.w3.org/2000/svg" viewBox="0 0 243.82 185.6" width="200" height="152">
    <defs>
        <style>
            .cls-1{fill:#ca4e97}
        </style>
    </defs>
    <title>
        info-dish
    </title>
    <g id="Слой_2" data-name="Слой 2">
        <g id="Слой_1-2" data-name="Слой 1">
            <path class="cls-1" d="M142.85 146.89a8.66 8.66 0 0 1-1.51-.14 7.47 7.47 0 0 1-5.87-5.11 48.46 48.46 0 0 0-11-18.47 49.55 49.55 0 0 0-7.5-6.42 7.38 7.38 0 0 1-3.18-7 8.85 8.85 0 0 1 5.79-7.17c10.87-4.21 22.7 2 28.78 10.22s8.67 21.37 1.49 30.54a9 9 0 0 1-7 3.55zm-15.95-42.65a17.12 17.12 0 0 0-6.19 1.1 5.88 5.88 0 0 0-3.91 4.71 4.45 4.45 0 0 0 1.9 4.23 51.59 51.59 0 0 1 8 6.83 50.61 50.61 0 0 1 7.13 9.48 52 52 0 0 1 4.53 10.13 4.48 4.48 0 0 0 3.56 3.07 5.84 5.84 0 0 0 5.63-2.35c4.72-6 5.71-17.22-1.54-26.9-5.32-7.19-12.72-10.3-19.11-10.3z"/>
            <path class="cls-1" d="M109.11 151.29a12.35 12.35 0 0 1-5.09-1.06 11 11 0 0 1-5.92-6.43 11.68 11.68 0 0 1 7.39-15l7.08-2.3c3.85-1.29 9-4.42 11.21-5.76l.56-.34a1.5 1.5 0 0 1 1.55 2.57l-.55.33c-2.29 1.39-7.65 4.65-11.83 6l-7.1 2.3a8.69 8.69 0 0 0-5.49 11.17 7.93 7.93 0 0 0 4.32 4.7 10.46 10.46 0 0 0 8.16-.06c5.47-2.24 13.9-11.64 18-16.85a1.5 1.5 0 0 1 2.36 1.86c-1.19 1.5-11.8 14.73-19.25 17.77a14.39 14.39 0 0 1-5.4 1.1z"/>
            <path class="cls-1" d="M139.52 118a1.51 1.51 0 0 1-1-.41 15.64 15.64 0 0 0-11-5 1.5 1.5 0 0 1-1.42-1.57 1.47 1.47 0 0 1 1.57-1.43 18.53 18.53 0 0 1 12.89 5.8 1.5 1.5 0 0 1 .07 2.13 1.53 1.53 0 0 1-1.11.48z"/>
            <path class="cls-1" d="M165.5 98.89a7.13 7.13 0 0 1-.79 0c-9.22-1.21-26.67-5.51-39.83-20.79a65.15 65.15 0 0 1-15.66-40.18 5.89 5.89 0 0 1 2-4.64 6.05 6.05 0 0 1 5-1.42c9 1.51 26.05 6.26 39.05 21.12a66.67 66.67 0 0 1 16.17 39.65 6 6 0 0 1-6 6.31zm-50.26-64.16a3 3 0 0 0-2 .75 2.86 2.86 0 0 0-1 2.3 62.05 62.05 0 0 0 14.93 38.31c12.51 14.53 29.15 18.62 37.95 19.77a3 3 0 0 0 2.45-.78 3 3 0 0 0 .93-2.33 63.59 63.59 0 0 0-15.43-37.84c-12.38-14.16-28.68-18.69-37.29-20.14a3 3 0 0 0-.54-.04z"/>
            <path class="cls-1" d="M129.1 51.54a3.06 3.06 0 0 1-2.32-1 3 3 0 0 1 .32-4.31 3.08 3.08 0 0 1 4.31.32 3 3 0 0 1-.32 4.31 3 3 0 0 1-1.99.68zm0-3.09c0 .09.08.09.11.07a.08.08 0 0 0-.13-.07z"/>
            <path class="cls-1" d="M120.37 66.06a12 12 0 0 1-3.38-.41 1.5 1.5 0 0 1 .92-2.86c.28.09 7.2 2.08 16.71-5.81a22 22 0 0 0 7.3-12.85 1.5 1.5 0 0 1 3 .36 24.67 24.67 0 0 1-8.36 14.8c-6.87 5.71-12.71 6.77-16.19 6.77z"/>
            <path class="cls-1" d="M161.71 66.06h-.12a1.51 1.51 0 0 1-1.38-1.62c.36-4.34 4.06-5.76 6.5-6.7.51-.2 1.15-.45 1.53-.65a3.72 3.72 0 0 0-.31-.35c-3.42-3.62-15.73-6.59-20.19-7.43a1.5 1.5 0 0 1 .55-2.95c.7.13 17 3.25 21.82 8.32a3.59 3.59 0 0 1 1.22 3.11c-.34 1.52-1.9 2.12-3.54 2.75-2.57 1-4.4 1.86-4.59 4.15a1.5 1.5 0 0 1-1.49 1.37zm6.69-8.71z"/>
            <path class="cls-1" d="M149.56 103.45a1.62 1.62 0 0 1-1.06-.4c-7.22-6.55-9.06-13.06-9.14-13.34a1.5 1.5 0 0 1 2.9-.79c0 .08 1.53 5.25 7.05 10.76 1.15-1.83 3.11-4.7 5.87-5.62a1.5 1.5 0 1 1 .95 2.85c-2 .65-3.65 3.34-4.55 4.79-.67 1.08-1 1.62-1.83 1.73z"/>
            <path class="cls-1" d="M172.62 117.88h-.07a3 3 0 0 1-2.68-1.76l-.06-.14-6.27-18.12a1.5 1.5 0 1 1 2.83-1l6.23 18 3.94-7.45a1.48 1.48 0 0 1 .79-.71l8.31-3.21-16.37-8.64a1.5 1.5 0 1 1 1.39-2.65l16.43 8.63a3 3 0 0 1-.4 5.47l-7.75 3-3.64 7a3 3 0 0 1-2.68 1.58z"/>
            <path class="cls-1" d="M143.35 81.58a1.47 1.47 0 0 1-.88-.29A73.84 73.84 0 0 1 126.09 64a1.5 1.5 0 0 1 2.52-1.64 72.07 72.07 0 0 0 15.63 16.55 1.5 1.5 0 0 1-.89 2.71z"/>
            <path class="cls-1" d="M95 71.4a1 1 0 0 1-.3 0 1.49 1.49 0 0 1-1.2-1.44c0-.1-.22-9.61-5.34-12.56a1.5 1.5 0 0 1 1.5-2.6c3.9 2.25 5.58 7 6.3 10.55a26.06 26.06 0 0 1 11.3-8.54 1.5 1.5 0 0 1 1 2.84c-.09 0-8.32 3-11.88 10.9a1.51 1.51 0 0 1-1.38.85z"/>
            <path class="cls-1" d="M95.05 71.4a1.53 1.53 0 0 1-.91-.3 1.5 1.5 0 0 1-.46-1.81A25 25 0 0 0 95 53.55a1.5 1.5 0 0 1 2.88-.85 27.61 27.61 0 0 1 0 13.52c3.42-1.89 8.6-3.82 13.29-1.83a1.5 1.5 0 1 1-1.17 2.77c-6-2.58-13.92 3.84-14 3.9a1.46 1.46 0 0 1-.95.34z"/>
            <path class="cls-1" d="M88.47 111.38a26.29 26.29 0 0 1-10.77-2.29 27.29 27.29 0 0 1-14.36-15.81A29.21 29.21 0 0 1 63.22 73c2.64-6.82 6.49-10.91 11.42-12.18 7.8-2 15.75 3.75 18.81 6.32a10.84 10.84 0 0 0 5.14 2.37c3 .5 13 2.73 16.84 10.25 2.3 4.49 1.92 9.91-1.13 16.12-4.3 8.66-14.71 15.5-25.83 15.5zM66 74.06c-4.15 10.68.14 26.57 12.9 32.29 13 5.82 27.64-1.57 32.69-11.83 2.61-5.3 3-9.82 1.15-13.43-2.55-5-9.25-7.74-14.67-8.66a13.69 13.69 0 0 1-6.56-3C89.42 67.64 82 62 75.38 63.7c-3.94 1-7.09 4.49-9.36 10.36z"/>
            <path class="cls-1" d="M100.1 81.19a1.66 1.66 0 0 1-.48-.08 13.71 13.71 0 0 0-3.7-.67 13.82 13.82 0 0 1-5.26-1.26A16.09 16.09 0 0 1 87 76.43a32.89 32.89 0 0 0-2.71-2.28 1.5 1.5 0 0 1 1.78-2.42c1.11.82 2.08 1.7 2.94 2.47a13.84 13.84 0 0 0 2.92 2.26 10.92 10.92 0 0 0 4.23 1 16.68 16.68 0 0 1 4.42.82 1.5 1.5 0 0 1 1 1.9 1.52 1.52 0 0 1-1.48 1.01z"/>
            <path class="cls-1" d="M77.41 98.67a1.47 1.47 0 0 1-1.09-.48c-.4-.42-9.6-10.52-4.08-23.53A1.5 1.5 0 1 1 75 75.83c-4.74 11.19 3.17 20 3.51 20.32a1.5 1.5 0 0 1-1.1 2.52z"/>
            <path class="cls-1" d="M123.33 185.6a92.8 92.8 0 1 1 92.8-92.8 92.9 92.9 0 0 1-92.8 92.8zm0-182.6a89.8 89.8 0 1 0 89.8 89.8A89.89 89.89 0 0 0 123.33 3z"/>
            <path class="cls-1" d="M123.33 167.79a75 75 0 1 1 75-75 75.07 75.07 0 0 1-75 75zm0-147a72 72 0 1 0 72 72 72.07 72.07 0 0 0-72-71.98z"/>
            <path class="cls-1" d="M12.83 60.83h-.2C5.66 60.71 0 54.34 0 46.63v-5a1.5 1.5 0 0 1 1.5-1.5h22.67a1.5 1.5 0 0 1 1.5 1.5v5.4a14.27 14.27 0 0 1-4.16 10.14 12.32 12.32 0 0 1-8.68 3.66zM3 43.17v3.46c0 6.08 4.34 11.1 9.68 11.19a9.3 9.3 0 0 0 6.73-2.75 11.25 11.25 0 0 0 3.26-8v-3.9z"/>
            <path class="cls-1" d="M24.16 43.17a1.5 1.5 0 0 1-1.5-1.5V8.48a1.5 1.5 0 0 1 3 0v33.19a1.5 1.5 0 0 1-1.5 1.5z"/>
            <path class="cls-1" d="M16.6 43.17a1.5 1.5 0 0 1-1.5-1.5V8.48a1.5 1.5 0 1 1 3 0v33.19a1.5 1.5 0 0 1-1.5 1.5z"/>
            <path class="cls-1" d="M9.05 43.17a1.5 1.5 0 0 1-1.5-1.5V8.48a1.5 1.5 0 0 1 3 0v33.19a1.5 1.5 0 0 1-1.5 1.5z"/>
            <path class="cls-1" d="M1.5 43.17a1.5 1.5 0 0 1-1.5-1.5V8.48a1.5 1.5 0 0 1 3 0v33.19a1.5 1.5 0 0 1-1.5 1.5z"/>
            <path class="cls-1" d="M12.65 78.32a1.5 1.5 0 0 1-1.5-1.5v-17.5a1.5 1.5 0 0 1 3 0v17.5a1.5 1.5 0 0 1-1.5 1.5z"/>
            <path class="cls-1" d="M12.83 179.21a7 7 0 0 1-7-7V83a7 7 0 0 1 14 0v89.17a7 7 0 0 1-7 7.04zm0-100.21a4 4 0 0 0-4 4v89.17a4 4 0 1 0 8 0V83a4 4 0 0 0-4-4z"/>
            <path class="cls-1" d="M236.8 179.21a7 7 0 0 1-7-7v-67a1.5 1.5 0 0 1 1.5-1.5h11a1.5 1.5 0 0 1 1.5 1.5v67a7 7 0 0 1-7 7zm-4-72.49v65.49a4 4 0 0 0 8 0v-65.49z"/>
            <path class="cls-1" d="M242.32 110.49a1.5 1.5 0 0 1-1.5-1.5V9.14c-3.2 2.36-9.69 9.25-13.68 28-6.55 30.82 5.47 67.22 5.6 67.59a1.5 1.5 0 0 1-2.85 1c-.12-.37-12.4-37.52-5.68-69.16 5.87-27.68 17.21-31.28 17.69-31.42a1.5 1.5 0 0 1 1.92 1.44V109a1.5 1.5 0 0 1-1.5 1.49z"/>
        </g>
    </g>
</svg>
