<svg xmlns="http://www.w3.org/2000/svg" viewBox="0 0 239.37 345.68">
    <defs>
        <style>
            .cls-1{fill:#76b15e}.cls-2{fill:#b54f46}.cls-3{fill:#83bfcf}.cls-4{fill:#a9589d}.cls-5{fill:#adc956}.cls-6{fill:#c96e46}.cls-7{fill:#da9c47}
        </style>
    </defs>
    <title>
        logo
    </title>
    <g id="Слой_2" data-name="Слой 2">
        <g id="Слой_1-2" data-name="Слой 1">
            <path class="cls-1" d="M176.41 65a2.5 2.5 0 0 1-2.5-2.5v-4.57a52.93 52.93 0 1 0-105.86 0v4.57a2.5 2.5 0 1 1-5 0v-4.57a57.93 57.93 0 1 1 115.86 0v4.57a2.5 2.5 0 0 1-2.5 2.5z"/>
            <path class="cls-1" d="M18.47 263.91a1.35 1.35 0 0 0-1.87.4 13.34 13.34 0 0 0-.73 12.14c-3.84-5.58-4.5-9.69-4.51-9.73a1.35 1.35 0 1 0-2.67.39 26.69 26.69 0 0 0 3.91 9.25c-6.25-3.92-10.63-3.9-10.84-3.9a1.34 1.34 0 0 0-1.32 1.36 1.36 1.36 0 0 0 1.34 1.33c.06 0 5.06 0 12 5.32a1.41 1.41 0 0 0 .8.28 1.39 1.39 0 0 0 1.1-.53 1.31 1.31 0 0 0 .23-.56 1.26 1.26 0 0 0 .49-.21 1.35 1.35 0 0 0 .28-1.89l-.37-.51a1.43 1.43 0 0 0 .84.32 1.36 1.36 0 0 0 1.24-1.92 10.57 10.57 0 0 1 .48-9.67 1.35 1.35 0 0 0-.4-1.87z"/>
            <path class="cls-1" d="M13 279.89a10.65 10.65 0 0 0-11.9.11 1.35 1.35 0 0 0-.27 1.88 1.37 1.37 0 0 0 1.07.55 1.41 1.41 0 0 0 .82-.27 8 8 0 0 1 8.84 0 1.35 1.35 0 0 0 1.42-2.3z"/>
            <path class="cls-2" d="M47.94 287.92a25.22 25.22 0 0 0-6.14-16.42c-4.23-4.69-8.6-6.82-13-6.32-6.92.78-11.57 7.87-13.25 10.88a9.3 9.3 0 0 1-3.39 3.46c-2.22 1.32-9.61 6.19-10.4 13.48-.48 4.34 1.5 8.6 5.87 12.67A24.83 24.83 0 0 0 24 311.83a23.58 23.58 0 0 0 17.22-6.76 23.53 23.53 0 0 0 6.72-17.15zm-8.63 15.24c-8.64 8.64-22.66 7.2-29.84.51-3.72-3.46-5.41-7-5-10.41.52-4.77 5.05-9 9.12-11.42a11.87 11.87 0 0 0 4.37-4.47c1.16-2.06 5.37-8.85 11.2-9.51a7.11 7.11 0 0 1 1-.05c3.14 0 6.38 1.89 9.63 5.5 6.59 7.3 8.01 21.36-.48 29.85z"/>
            <path class="cls-2" d="M24 276.25a17.5 17.5 0 0 0-2.82 4.86 9.14 9.14 0 0 1-1 2 8.69 8.69 0 0 1-3.23 2.15 11.28 11.28 0 0 0-4.45 3.14 1.35 1.35 0 0 0 .2 1.9 1.3 1.3 0 0 0 .83.3 1.32 1.32 0 0 0 1.07-.5 8.76 8.76 0 0 1 3.49-2.4 11.15 11.15 0 0 0 4.14-2.84 10.18 10.18 0 0 0 1.46-2.69A15.34 15.34 0 0 1 26 278a1.35 1.35 0 1 0-2-1.77z"/>
            <path class="cls-2" d="M34.3 277a1.35 1.35 0 0 0-.39 1.87c8.21 12.57-1.27 19.91-1.67 20.22a1.34 1.34 0 0 0-.28 1.88 1.37 1.37 0 0 0 1.07.55 1.34 1.34 0 0 0 .82-.27c4.17-3.09 10-12.06 2.32-23.86a1.35 1.35 0 0 0-1.87-.39z"/>
            <path class="cls-3" d="M96.59 307.44a7.67 7.67 0 0 0-7.46-2.91 6.41 6.41 0 0 0-5 4.48 42.75 42.75 0 0 1-2.29 5.81 50.21 50.21 0 0 1-6.76-6.94l-3.74-5.22A10.12 10.12 0 0 0 57 300.49a9.56 9.56 0 0 0-3.78 6.58 11.67 11.67 0 0 0 2.78 8.69c3.65 4.38 13.49 8.72 17.76 10.46a41.14 41.14 0 0 1-5.24 4.44 6.49 6.49 0 0 0-2.7 6.22 7.65 7.65 0 0 0 5.07 6.12 17.22 17.22 0 0 0 6.1 1.1c7.47 0 14.63-4.62 18.7-10.3 5.23-7.13 7.22-18.5.9-26.36zM58.06 314a9 9 0 0 1-2.17-6.65 6.81 6.81 0 0 1 2.72-4.74 7.43 7.43 0 0 1 10.53 1.59l3.75 5.23a56.05 56.05 0 0 0 7.66 7.82 41.29 41.29 0 0 1-4.84 6.82c-5.5-2.07-14.57-6.34-17.65-10.07zm35.44 18.26c-6 8.46-15.48 10.56-21.66 8.26a5 5 0 0 1-3.36-4 3.8 3.8 0 0 1 1.58-3.67 44.33 44.33 0 0 0 7.16-6.37 43.77 43.77 0 0 0 6-8.34 44.93 44.93 0 0 0 3.54-8.35 3.76 3.76 0 0 1 2.94-2.62 4.19 4.19 0 0 1 .86-.09 5.17 5.17 0 0 1 4 2.05c4.06 5.15 5.05 14.74-1.06 23.13z"/>
            <path class="cls-3" d="M91.28 314.94a1.35 1.35 0 0 0-1 1.65 13.49 13.49 0 0 1-1.23 10.29 1.34 1.34 0 0 0 .63 1.79 1.34 1.34 0 0 0 1.81-.63 16 16 0 0 0 1.41-12.15 1.35 1.35 0 0 0-1.62-.95z"/>
            <path class="cls-4" d="M180.53 283.42a1.34 1.34 0 0 0-1.8-.62c-.61.3-14.17 7.16-15.31 27.64-.81 14.59-4 24.37-9.51 29.07-3 2.58-6.68 3.61-11.16 3.15a16.59 16.59 0 0 1-11.67-6.48c-3.59-4.65-5-11-3.92-17.82 4.88-31.7 43.31-44.93 43.71-45.06a1.35 1.35 0 0 0-.86-2.56c-.42.14-40.38 13.88-45.52 47.2-1.17 7.59.41 14.65 4.45 19.89a19.5 19.5 0 0 0 13.53 7.52c.77.07 1.52.11 2.25.11a16.39 16.39 0 0 0 10.95-3.9c6.08-5.19 9.6-15.61 10.45-31 1-18.83 13.23-25.08 13.8-25.37a1.35 1.35 0 0 0 .61-1.77z"/>
            <path class="cls-4" d="M136.55 307.64a1.34 1.34 0 0 0-1.81.59c-.27.51-6.34 12.7-1.33 22.63a11.64 11.64 0 0 0 9.68 6.83h.9c3.35 0 6.54-1.41 8.15-3.66a1.35 1.35 0 1 0-2.2-1.56c-1 1.41-3.63 2.74-6.65 2.49a9 9 0 0 1-7.47-5.35c-4.39-8.7 1.26-20.08 1.32-20.19a1.34 1.34 0 0 0-.59-1.78z"/>
            <path class="cls-4" d="M166.7 285.25a36.13 36.13 0 0 0-8.7 14.65 44.2 44.2 0 0 0-2.15 11.83v.1a1.35 1.35 0 0 0 1.26 1.44h.09a1.35 1.35 0 0 0 1.34-1.27v-.1a40.91 40.91 0 0 1 2-11.19 34 34 0 0 1 8-13.48 1.35 1.35 0 1 0-1.83-2z"/>
            <path class="cls-4" d="M155.41 287a1.34 1.34 0 0 0-1.89-.27c-11.45 8.52-14.61 14.47-14.74 14.71a1.36 1.36 0 0 0 .58 1.82 1.38 1.38 0 0 0 .62.15 1.35 1.35 0 0 0 1.2-.72c0-.06 3.09-5.71 13.95-13.8a1.34 1.34 0 0 0 .28-1.89z"/>
            <path class="cls-5" d="M202 268.1c-.07-.07-6.94-6.8-15.09-.34-2.6-2.31-5.44-2.77-9.18-1.47a20.2 20.2 0 0 1-9.31.83c-.85-.1-1.47-.17-2 .43a1.42 1.42 0 0 0-.27 1.27c1 3.59 5 4.85 7.79 5.28-4 4.28-3.2 5.32-2.72 5.91 1.33 1.64 4.2 1.1 7.2.21-1.08 6.57 2 8.37 2.4 8.57a1.31 1.31 0 0 0 .61.15 1.39 1.39 0 0 0 .6-.14 1.32 1.32 0 0 0 .73-1 18.72 18.72 0 0 1 4.1-7.72c2.84-3.4 3.43-7.26 1.75-10.26 6.23-4.87 11.23-.07 11.46.16a1.35 1.35 0 0 0 1.93-1.88zm-17.19 10.27a24.22 24.22 0 0 0-3.74 6.05 12.6 12.6 0 0 1 .47-5.74 1.41 1.41 0 0 0-.37-1.35 1.26 1.26 0 0 0-.91-.38 6.16 6.16 0 0 0-1.61.38 18.3 18.3 0 0 1-4.75 1.07 34.24 34.24 0 0 1 4-4.44 1.36 1.36 0 0 0 .32-1.5 1.4 1.4 0 0 0-1.28-.83c-.05 0-4.32 0-6.73-1.63a22.13 22.13 0 0 0 8.37-1.16c3.32-1.15 5-.42 6.63 1 2.33 2.16 2.16 5.43-.43 8.53z"/>
            <path class="cls-6" d="M124.71 271.24c-5.58-4.57-13.38-6.34-21.4-4.85-14.5 2.7-26.45 12.09-28.85 14.08-4.12-.28-7.22-.84-8.93-1.64a20.71 20.71 0 0 1-5-3.34c-1.76-1.5-3.28-2.79-6.06-2.23a4.89 4.89 0 0 0-4 3.41c-.75 2.54.4 5.63 2 7.63-.8 1.64-2.22 5-1.19 7.63a4.46 4.46 0 0 0 2.71 2.54 5.45 5.45 0 0 0 1.91.37c1.76 0 3-1 4.15-2.07a15.2 15.2 0 0 1 5-3.11c1.77-.65 5-1 9.09-1 2.21 2.13 13.32 12.34 27.58 16.1a29.73 29.73 0 0 0 7.57 1 24.68 24.68 0 0 0 14.14-4.24 19.28 19.28 0 0 0 8.33-14.14c0-.28.07-1.19.06-1.48a19.06 19.06 0 0 0-7.11-14.66zm-60.56 15.89a18 18 0 0 0-5.79 3.6c-1.57 1.36-2 1.69-3.37 1.21a1.71 1.71 0 0 1-1.12-1c-.33-.82-.36-2.53 1.36-6a3.3 3.3 0 0 0 .17-.35 1.35 1.35 0 0 0-.29-1.49c-1.37-1.35-2.5-3.95-2-5.68a2.15 2.15 0 0 1 1.89-1.51 3.76 3.76 0 0 1 .71-.08c1 0 1.67.54 3.06 1.71a23.06 23.06 0 0 0 5.59 3.74c2.38 1.12 6.36 1.66 10.41 1.91 3.54.21 7.12.21 9.74.15a1.63 1.63 0 0 1 1.15.45 1.33 1.33 0 0 1 .38 1v.41a1.38 1.38 0 0 1-.48 1 1.69 1.69 0 0 1-1.24.38c-5.5-.58-15.5-1.19-20.17.55zm65 0a16.6 16.6 0 0 1-7.2 12.18c-5.2 3.63-12.48 4.69-19.47 2.85-10.73-2.83-19.81-9.7-24.1-13.37 1.81.09 3.74.23 5.76.42a4.3 4.3 0 0 0 3.27-1 4.08 4.08 0 0 0 1.41-2.91v-.41a4 4 0 0 0-1.16-3 4.3 4.3 0 0 0-3.13-1.26q-3.13.08-5.88 0c4.59-3.37 14.23-9.58 25.17-11.61 7.12-1.32 14.3.27 19.19 4.28a16.44 16.44 0 0 1 6.15 12.7c.01.16-.03 1-.04 1.16z"/>
            <path class="cls-6" d="M112.22 272.59a1.35 1.35 0 0 0-.42 2.66 13.89 13.89 0 0 1 7.13 4c3.52 3.8 3.43 7.25 3.42 7.42a1.34 1.34 0 0 0 1.27 1.41h.08a1.36 1.36 0 0 0 1.35-1.28c0-.19.21-4.69-4.14-9.39a16.43 16.43 0 0 0-8.69-4.82z"/>
            <path class="cls-6" d="M110.43 295.67c-7.43.86-17.74-6-17.85-6a1.35 1.35 0 0 0-1.5 2.25c.43.28 9.9 6.55 18 6.55a14.75 14.75 0 0 0 1.64-.09 1.36 1.36 0 0 0 1.19-1.5 1.34 1.34 0 0 0-1.48-1.21z"/>
            <path class="cls-5" d="M116.11 316.9a21.06 21.06 0 0 1 3.74-5.67 1.35 1.35 0 0 0-1.85-2 23.48 23.48 0 0 0-4.52 6.88c-1.91.77-8 3.68-10.34 10-1.92 5.18-.85 11.23 3.17 18a1.33 1.33 0 0 0 1.16.66 1.1 1.1 0 0 0 .31 0 18.06 18.06 0 0 0 12.44-12.23c2.28-7.87-2.22-13.67-4.11-15.64zm1.52 14.92a15.27 15.27 0 0 1-9.53 10.05c-3.14-5.64-4-10.59-2.44-14.73a14.75 14.75 0 0 1 6.36-7.23 39 39 0 0 0-1.73 9.17 1.34 1.34 0 0 0 1.25 1.44h.1a1.34 1.34 0 0 0 1.34-1.25 36.29 36.29 0 0 1 2-9.58 13.29 13.29 0 0 1 2.65 12.13z"/>
            <path class="cls-3" d="M239.33 291.23a22.46 22.46 0 0 0-4-7.64c.27-2 .64-8-3.63-12.67s-12.17-6.69-23.12-5.49a1.35 1.35 0 0 0-.94.55 1.32 1.32 0 0 0-.23 1.07A31.79 31.79 0 0 0 217 283.1a14.77 14.77 0 0 0 10 3.72 19.61 19.61 0 0 0 6.56-1.19 19.33 19.33 0 0 1 3.18 6.24 1.37 1.37 0 0 0 1.31 1 1.65 1.65 0 0 0 .32 0 1.36 1.36 0 0 0 .96-1.64zm-20.56-10.16a29.53 29.53 0 0 1-8.28-13.07c9.18-.78 15.64.82 19.23 4.75a12.55 12.55 0 0 1 3.07 8 26.62 26.62 0 0 0-8.55-5.4 1.35 1.35 0 0 0-1 2.51 23.57 23.57 0 0 1 8.39 5.55c-2.76.8-8.29 1.68-12.86-2.34z"/>
            <path class="cls-5" d="M71.19 274.39c-6.13 0-9.5-5.32-9.65-5.56a1.36 1.36 0 0 1 .4-1.83c.37-.25 9.24-6.07 18.73-.05a1.34 1.34 0 0 1 .48 1.73 11.13 11.13 0 0 1-9.35 5.7zm-6.47-5.85a8.75 8.75 0 0 0 6.93 3.14 8.63 8.63 0 0 0 6.35-3.14 14.73 14.73 0 0 0-13.28 0z"/>
            <path class="cls-7" d="M137.82 283.1a1.35 1.35 0 0 1-1.34-1.22L135 266.32a1.34 1.34 0 0 1 1.19-1.47 19.15 19.15 0 0 1 8.59.83c3.64 1.2 5.92 2.82 7.65 5.4a1.36 1.36 0 0 1-.32 1.84l-13.45 9.92a1.39 1.39 0 0 1-.84.26zm0-15.68l1.15 11.83 10.43-7.69a11.61 11.61 0 0 0-5.47-3.32 16.15 16.15 0 0 0-6.15-.82z"/>
            <path class="cls-1" d="M62.67 331.57a7.74 7.74 0 0 0-3-6.26c-2.73-1.92-7-2-12.85-.31-3.43 1-8.67 1.09-14.37.19-3-.46-6.22-2.05-9.36-3.58-6.11-3-13-6.32-18.56-1.11a5 5 0 0 1 1-5.42c1.2-1.36 3.56-1.23 3.57-1.23a1.33 1.33 0 0 0 1.45-1.25 1.35 1.35 0 0 0-1.25-1.44c-.15 0-3.7-.24-5.8 2.14a7.9 7.9 0 0 0-.81 9.49 12.11 12.11 0 0 0-1.36 9.58c.85 3.08 3.7 8.64 13.21 11.25a72 72 0 0 0 18 2.06c6.95 0 14.15-.82 19.8-2.72 7.1-2.4 10.59-6.24 10.33-11.39zm-11.24 8.83c-11.79 4-28.6 2.71-36.25.62-6.09-1.68-10.11-5-11.31-9.37A9.23 9.23 0 0 1 6 322.81a7.14 7.14 0 0 1 5.39-2.37c3.13 0 6.66 1.72 10.5 3.6 3.32 1.62 6.76 3.29 10.13 3.82 2.88.45 10.16 1.33 15.55-.27 4.83-1.43 8.57-1.46 10.53-.07a5.07 5.07 0 0 1 1.9 4.18c0 1.42.26 5.73-8.57 8.7z"/>
            <path class="cls-1" d="M45.17 335.57a36.92 36.92 0 0 1-9.33.87h-.46a1.35 1.35 0 1 0 0 2.7h.5a39.14 39.14 0 0 0 9.84-.93 1.35 1.35 0 1 0-.55-2.64z"/>
            <path class="cls-1" d="M25.74 336.33c-5.28-.55-9.67-1.93-12.38-3.88-3-2.16-2-4.19-1.75-4.58a1.35 1.35 0 0 0-2.28-1.45c-1 1.52-1.73 5.2 2.45 8.22 3.09 2.22 7.94 3.78 13.68 4.37h.14a1.35 1.35 0 0 0 .14-2.69z"/>
            <path class="cls-5" d="M50.48 317.14a1.36 1.36 0 0 0-1.75-.77 20.49 20.49 0 0 1-6.06 1.05A15.42 15.42 0 0 0 49.2 310a1.35 1.35 0 0 0-2.54-.91 13 13 0 0 1-5.45 6 18.91 18.91 0 0 0 1.62-3.85 1.35 1.35 0 0 0-2.6-.72c0 .05-1.27 4.43-3.9 6.28a20.72 20.72 0 0 1-8.48-.46A1.35 1.35 0 1 0 27 319a22.15 22.15 0 0 0 6.24.86 21.35 21.35 0 0 0 3.55-.3 23.53 23.53 0 0 0 12.89-.64 1.36 1.36 0 0 0 .8-1.78z"/>
            <path class="cls-6" d="M208.87 284.2a16.11 16.11 0 0 0-10.79-.33 22.73 22.73 0 0 1 6.38-4.17 1.35 1.35 0 1 0-.94-2.53 25.76 25.76 0 0 0-11.37 9.49 30.17 30.17 0 0 0-8.12 8.07 1.34 1.34 0 0 0 1.13 2.07 1.35 1.35 0 0 0 1.14-.62 28 28 0 0 1 7.41-7.3 7.15 7.15 0 0 1 7.19 1.48 1.32 1.32 0 0 0 .95.4 1.33 1.33 0 0 0 1-.39 1.35 1.35 0 0 0 0-1.91 10.25 10.25 0 0 0-3.47-2.13 13.3 13.3 0 0 1 8.37.31 1.35 1.35 0 0 0 1.16-2.44z"/>
            <path class="cls-7" d="M238.34 311.22a.48.48 0 0 0 0-.12c-.76-6.49-4.49-12.39-10.79-17.07a39 39 0 0 0-9.3-5.12 1.41 1.41 0 0 0-1 .05L171 310.14a1.34 1.34 0 0 0-.37.25 1.27 1.27 0 0 0-.26.39 1.64 1.64 0 0 0-.1.49v15a1.35 1.35 0 0 0 1.3 1.35 3.27 3.27 0 0 1 0 6.52 1.36 1.36 0 0 0-1.29 1.36v5.59a4 4 0 0 0 4 4l54.1-.11a10.18 10.18 0 0 0 10-10.3zm-20.5-19.6c2.66 1.07 15.25 6.7 17.57 18.26l-57.67.12zm10.51 50.82l-54.1.11a1.31 1.31 0 0 1-1.31-1.31v-4.44a6 6 0 0 0 0-11.52v-12.57l62.78-.13v22.26a7.48 7.48 0 0 1-7.37 7.6z"/>
            <path class="cls-7" d="M190.19 317.63a5.69 5.69 0 0 0 0 11.37 5.67 5.67 0 0 0 5.67-5.69 5.69 5.69 0 0 0-5.67-5.68zm2.12 7.79a3 3 0 0 1-2.11.88 3 3 0 0 1 0-6 3 3 0 0 1 3 3 3 3 0 0 1-.89 2.12z"/>
            <path class="cls-7" d="M223.49 327.4a4.77 4.77 0 0 0 0 9.53 4.74 4.74 0 0 0 3.37-1.41 4.66 4.66 0 0 0 1.38-3.36 4.76 4.76 0 0 0-4.76-4.76zm1.46 6.22a2 2 0 0 1-1.45.61 2.07 2.07 0 0 1 0-4.13 2.06 2.06 0 0 1 1.46 3.52z"/>
            <path class="cls-7" d="M211.54 318.61a3.27 3.27 0 0 0 0 6.53 3.27 3.27 0 0 0 3.26-3.27 3.26 3.26 0 0 0-3.27-3.26zm0 3.83a.57.57 0 0 1-.57-.56.6.6 0 0 1 .17-.41.55.55 0 0 1 .4-.16.56.56 0 0 1 .57.56.57.57 0 0 1-.57.57z"/>
            <path class="cls-7" d="M202 333.86a2.24 2.24 0 0 0-2.24 2.25 2.25 2.25 0 0 0 2.25 2.25 2.27 2.27 0 0 0 2.25-2.26 2.24 2.24 0 0 0-2.25-2.24zm.32 2.56a.45.45 0 0 1-.32.14.43.43 0 0 1-.32-.14.44.44 0 0 1-.13-.31.46.46 0 0 1 .13-.32.42.42 0 0 1 .32-.13.45.45 0 0 1 .32.76z"/>
            <path class="cls-7" d="M216.71 298.74c.19 0 4.62 1.11 7.52 6.62a1.37 1.37 0 0 0 1.2.72 1.47 1.47 0 0 0 .63-.16 1.35 1.35 0 0 0 .56-1.82c-3.52-6.67-9.09-8-9.33-8a1.35 1.35 0 0 0-.58 2.64z"/>
            <path class="cls-1" d="M33.16 161.69H5.34a2.53 2.53 0 0 0-2.51 2.51v37.19a2.54 2.54 0 0 0 5.08 0v-34.92h22.68v34.92a2.54 2.54 0 0 0 5.07 0V164.2a2.52 2.52 0 0 0-2.5-2.51z"/>
            <path class="cls-1" d="M63.75 204.07c12.12 0 21.31-9.07 21.31-21.49 0-12.71-9.19-21.49-21.31-21.49-12.41 0-21.31 9.38-21.31 21.49 0 12.72 9.2 21.49 21.31 21.49zm0-38.2c9 0 15.94 7 15.94 16.71 0 9.44-6.39 16.72-15.94 16.72-9 0-15.93-7.22-15.93-16.72 0-9.73 6.86-16.71 15.93-16.71z"/>
            <path class="cls-1" d="M94.45 203.89a2.51 2.51 0 0 0 2.5-2.5v-14c2.09.18 4.6.24 6.27.24 10.21 0 15-6.33 15-13.14 0-6.5-3.52-13-15.46-13-1.91 0-5.67.06-8.41.12a2.52 2.52 0 0 0-2.51 2.51v37.19a2.53 2.53 0 0 0 2.61 2.58zM97 166.47c2-.06 4.66-.12 6.33-.12 6.63 0 9.61 3.16 9.61 8.12 0 5.25-3.7 8.41-9.85 8.41-2.09 0-4.06-.12-6.09-.3z"/>
            <path class="cls-1" d="M127.24 203.48h30.92v4.77a2.39 2.39 0 0 0 4.78 0v-7a2.52 2.52 0 0 0-2.51-2.51h-3.16v-34.9a2.54 2.54 0 0 0-5.07 0v34.86h-22.39v-34.86a2.54 2.54 0 0 0-5.07 0V201a2.52 2.52 0 0 0 2.5 2.48z"/>
            <path class="cls-1" d="M171.49 203.89c1.26 0 2.09-.65 3-1.85l24.29-31.93v31.28a2.54 2.54 0 0 0 5.08 0v-37.31a2.49 2.49 0 0 0-2.69-2.69c-1.25 0-2 .72-2.86 1.79L174 195.12v-31.28a2.54 2.54 0 0 0-5.07 0v37.31a2.43 2.43 0 0 0 2.56 2.74z"/>
            <path class="cls-1" d="M235.24 161.63c-2.39 0-5.25-.12-7.28-.12-11.28 0-16.3 6.33-16.3 13.85a12.55 12.55 0 0 0 8.24 11.7l-9.31 13.13a2.72 2.72 0 0 0-.54 1.55 2.08 2.08 0 0 0 2.21 2.15 2.92 2.92 0 0 0 2.51-1.49l10.08-14.4h7.82v13.43a2.54 2.54 0 0 0 5.08 0V164.2a2.58 2.58 0 0 0-2.51-2.57zm-2.57 21.55h-8.41a8.47 8.47 0 0 1-7.23-8.12c0-4.95 3.47-8.77 10-8.77 1.79 0 4.3.12 5.67.18z"/>
            <path class="cls-1" d="M30.89 247.75a2.76 2.76 0 0 0-1.45.41 15.92 15.92 0 0 1-8.4 2.26c-9.39 0-15.82-6.55-15.82-16.23S11.47 218 20.28 218a16.89 16.89 0 0 1 8.23 1.86 3.13 3.13 0 0 0 1.39.34 2.25 2.25 0 0 0 2.21-2.2 2.35 2.35 0 0 0-1.22-2 21 21 0 0 0-10.66-2.72C7.53 213.33 0 222.54 0 234.19c0 12.63 8.4 20.86 20.57 20.86a20 20 0 0 0 11.36-3.36 2.55 2.55 0 0 0 1.1-2 1.76 1.76 0 0 0-.4-1.16 2.16 2.16 0 0 0-1.74-.78z"/>
            <path class="cls-1" d="M62.56 213.62a2.45 2.45 0 0 0-2.49 2.38v16.17a17.19 17.19 0 0 1-9.45 3.07c-4.92 0-8.51-2.61-8.51-9.62V216a2.47 2.47 0 0 0-4.93 0v11c0 9.44 5.74 12.92 12.17 12.92a19.11 19.11 0 0 0 10.72-3.13v15.7a2.47 2.47 0 0 0 4.93 0V216a2.44 2.44 0 0 0-2.44-2.38z"/>
            <path class="cls-1" d="M92 215.59a3 3 0 0 0-2.78-2 3 3 0 0 0-2.84 2l-15.53 36a3.19 3.19 0 0 0-.23 1 2.31 2.31 0 0 0 4.52.64l4.63-11.07h18.47l4.7 11.07a2.49 2.49 0 0 0 2.31 1.62 2.38 2.38 0 0 0 2.38-2.49 3.12 3.12 0 0 0-.17-1zm-10.26 22L89 220.22l7.3 17.33z"/>
            <path class="cls-1" d="M140.06 247.75a2.79 2.79 0 0 0-1.45.41 15.92 15.92 0 0 1-8.4 2.26c-9.39 0-15.82-6.55-15.82-16.23S120.65 218 129.46 218a16.85 16.85 0 0 1 8.22 1.86 3.14 3.14 0 0 0 1.4.34 2 2 0 0 0 1.85-1 2.06 2.06 0 0 0 .35-1.1 2.35 2.35 0 0 0-1.22-2 21 21 0 0 0-10.66-2.72c-12.69 0-20.23 9.21-20.23 20.86 0 12.63 8.41 20.86 20.58 20.86a20 20 0 0 0 11.35-3.36 2.57 2.57 0 0 0 1.11-2 1.77 1.77 0 0 0-.41-1.16 2.15 2.15 0 0 0-1.74-.83z"/>
            <path class="cls-1" d="M174.78 213.91H146a2.32 2.32 0 0 0 0 4.63h11.94v33.9a2.46 2.46 0 0 0 4.92 0v-33.9h11.94a2.32 2.32 0 0 0 0-4.63z"/>
            <path class="cls-1" d="M192.93 228.68c-1.33 0-3.48.12-5.68.29V216a2.46 2.46 0 0 0-4.92 0v36a2.41 2.41 0 0 0 2.43 2.43c2.09.06 4.64.12 7.07.12 10.37 0 16.4-4.87 16.4-13.39 0-7.61-4.81-12.48-15.3-12.48zm-.52 21.32c-1.86 0-3.59-.11-5.16-.17v-16.16a51.3 51.3 0 0 1 5.33-.35c6.55 0 10.43 2.72 10.43 8-.01 5.85-3.94 8.68-10.6 8.68z"/>
            <path class="cls-1" d="M235.31 213.85c-2.32 0-5.1-.12-7.07-.12-11 0-15.82 6.14-15.82 13.45a12.2 12.2 0 0 0 8 11.36l-9 12.75a2.6 2.6 0 0 0-.52 1.5 2 2 0 0 0 2.15 2.09 2.82 2.82 0 0 0 2.43-1.45l9.79-14h7.6v13a2.46 2.46 0 0 0 4.92 0v-36.1a2.5 2.5 0 0 0-2.48-2.48zm-2.49 20.92h-8.18a8.22 8.22 0 0 1-7-7.88c0-4.81 3.36-8.52 9.68-8.52 1.74 0 4.17.11 5.51.17z"/>
            <path class="cls-7" d="M214.79 75.3a1.34 1.34 0 0 0-1.34-1.22H169a1.35 1.35 0 0 0-1.34 1.22c-.06.65-.09 1.25-.09 1.84 0 11.56 10.61 21 23.66 21s23.66-9.41 23.66-21a17 17 0 0 0-.1-1.84zm-44.52 1.84v-.36h18.14l-11.22 13.89a17.29 17.29 0 0 1-6.92-13.53zm9.14 15.08l11.82-14.63 11.82 14.63a23.49 23.49 0 0 1-23.64 0zm25.86-1.55l-11.22-13.89h18.14v.36a17.29 17.29 0 0 1-6.92 13.53z"/>
            <path class="cls-5" d="M107.78 103.68c-.16-.11-4-2.7-2.3-8.33.31-1 .74-2 1.2-3.15 1.64-3.94 3.67-8.83.28-13.75-3.13-4.55-8.72-5-14-3.76l1.07-3.6a1.35 1.35 0 0 0-2.59-.77l-1.57 5.32-.69.28-1.68-3.49a1.35 1.35 0 0 0-2.43 1.17l1.67 3.46c-.28.15-.55.31-.82.48l-5.14-2.07a1.35 1.35 0 0 0-1 2.5l3.55 1.43-.28.24a1.55 1.55 0 0 0-.33.3c-3.85 3.48-6.68 8.55-4.57 13.65 2.32 5.64 8.45 6.83 12.5 7.62 1 .19 1.89.36 2.59.57 6.34 1.84 5.43 5.77 5.31 6.2a1.35 1.35 0 0 0 .62 1.57 1.45 1.45 0 0 0 .67.17 1.32 1.32 0 0 0 1-.44l2.66-2.9 3.62-.21a1.35 1.35 0 0 0 .64-2.49zM97.09 85.93a24 24 0 0 0-2 5.24 24.57 24.57 0 0 0-5.33-1.72 6.62 6.62 0 0 1-4.6-3.45 5.34 5.34 0 0 1-.22-4.43 19 19 0 0 1 1.87-1.4 18.2 18.2 0 0 1 1.88-1.07 25.16 25.16 0 0 1 5.21-1.85 5.39 5.39 0 0 1 3.34 2.94 6.64 6.64 0 0 1-.15 5.74zm6.91 17.72l-1.21.07a1.31 1.31 0 0 0-.91.43l-.83.91a7.12 7.12 0 0 0-.54-1.31c-1.14-2.11-3.33-3.64-6.51-4.56-.82-.24-1.79-.43-2.82-.63-3.9-.76-8.76-1.71-10.53-6-1.1-2.68-.33-5.41 1.3-7.76a8.32 8.32 0 0 0 .77 2.42 9.31 9.31 0 0 0 6.48 4.87c4.46 1 6 2.24 6 2.29a1.35 1.35 0 0 0 .92.36h.13a1.57 1.57 0 0 0 .47-.13 1.3 1.3 0 0 0 .33-.23 1.32 1.32 0 0 0 .37-1s-.09-2 2-6.16a9.33 9.33 0 0 0 .31-8.22 8.51 8.51 0 0 0-1.52-2.24 7.86 7.86 0 0 1 6.53 3.2c2.55 3.71 1 7.34-.55 11.18a36.11 36.11 0 0 0-1.29 3.39 10.28 10.28 0 0 0 1.1 9.12z"/>
            <path class="cls-5" d="M129.84 127c-2.63-2.1-6.23-2.65-9.16-2.68a18.47 18.47 0 0 0 4.93-5.27 1.35 1.35 0 1 0-2.32-1.37 15.58 15.58 0 0 1-5.14 5C125.23 107 115 100 114.86 100a1.35 1.35 0 0 0-1.48 2.26c.39.26 9.49 6.58 1 22.07a1.34 1.34 0 0 0-.15.49 1 1 0 0 0 0 .25.7.7 0 0 0 0 .12 1.55 1.55 0 0 0 .07.23 1.34 1.34 0 0 0 .12.24l.1.15a.28.28 0 0 0 0 .09v.25a.78.78 0 0 0 0 .16.15.15 0 0 0 0 .07.84.84 0 0 0 0 .17v.08l.09.16v.07l.12.14a.79.79 0 0 0 .15.12l.18.09h.12c3.47 1.15 5.78 3.06 6.86 5.69 2.16 5.25-1.1 11.8-1.14 11.87a1.36 1.36 0 0 0 .59 1.81 1.38 1.38 0 0 0 .62.15 1.35 1.35 0 0 0 1.2-.74c.16-.31 3.86-7.7 1.23-14.11a11.46 11.46 0 0 0-4.07-5c2.47 0 5.41.46 7.46 2.09a1.34 1.34 0 0 0 .84.29 1.34 1.34 0 0 0 .84-2.4z"/>
            <path class="cls-4" d="M40.32 118.39a8.49 8.49 0 0 0-12.2-.87l-3.91 3.53a54.5 54.5 0 0 1-5.78 4.28c-.09-.68-.17-1.29-.24-1.94s-.17-1.49-.3-2.39a6.71 6.71 0 0 0-2.42-5.1c-1.57-1.21-3.73-1.57-6.41-1.06A9 9 0 0 0 3 119c-2.44 3.82-2.73 9.72-.85 17.06 2.45 9.63 7.1 14.51 13.85 14.51h.89c2.55-.16 4.39-1.12 5.46-2.85 2-3.14.62-8-.52-11.05 3.74-.66 12.74-2.5 16.54-5.45a9.91 9.91 0 0 0 3.86-6.65 8.17 8.17 0 0 0-1.91-6.18zM20 146.27c-.59 1-1.67 1.47-3.33 1.57-5.83.38-9.71-3.72-11.95-12.46-1.66-6.5-1.48-11.81.51-14.94a6.36 6.36 0 0 1 4.3-3 10 10 0 0 1 1.71-.17 4.19 4.19 0 0 1 2.56.72 4.27 4.27 0 0 1 1.38 3.24c.13 1 .22 1.72.3 2.42.12 1.06.23 2.06.48 3.52a37.45 37.45 0 0 0 2.39 8.16l.09.2c2.78 6.52 2.4 9.47 1.56 10.74zm19.49-22a7.14 7.14 0 0 1-2.82 4.79c-3.23 2.51-11.93 4.37-15.93 5a35.85 35.85 0 0 1-1.83-5.89 58.11 58.11 0 0 0 7.09-5.11l3.92-3.53a5.78 5.78 0 0 1 8.32.59 5.45 5.45 0 0 1 1.28 4.14z"/>
            <path class="cls-4" d="M9.62 123.83a1.35 1.35 0 0 0-2.46-1.13c-1.72 3.73-.71 9.09.21 11.13a1.35 1.35 0 0 0 2.47-1.11c-.61-1.35-1.57-5.96-.22-8.89z"/>
            <path class="cls-3" d="M187.72 144.52a64.28 64.28 0 0 0-11.32-31.12c-.27-2.25-2.08-16.07-6.17-20.57a3.35 3.35 0 0 0-2.76-1.33c-1.42.21-2.08 1.6-2.77 3.07-1 2.2-2 3.78-3.87 4a62.93 62.93 0 0 0-25.76-9.61H135l-6.56-15.14a2.75 2.75 0 0 0-5 0l-3.35 7-6.75 2.91a2.78 2.78 0 0 0-.25 5l.12.06 15.68 6.78a63.68 63.68 0 0 0 1 7.62c-.89 1.67-3.31 2.95-4.65 3.65-1 .55-1.56.82-1.71 1.55a1.4 1.4 0 0 0 .26 1.15 30 30 0 0 0 11.21 9.18 54.64 54.64 0 0 0 10.36 14.51 60.8 60.8 0 0 0 36.27 17.37 5.68 5.68 0 0 0 .59 0 5.45 5.45 0 0 0 3.83-1.58 5.56 5.56 0 0 0 1.67-4.5zm-20.58-48.79a11.84 11.84 0 0 1 .74-1.43 2.74 2.74 0 0 1 .36.35c2.27 2.5 3.89 9.31 4.79 14.48q-1-1.22-2.22-2.4a60 60 0 0 0-7.25-6.28c1.88-1.14 2.86-3.2 3.58-4.72zm-52.75-9.54l7.22-3.11a1.31 1.31 0 0 0 .69-.66l3.57-7.51h.1l6.26 14.44a5.44 5.44 0 0 0-1.62 1 5.55 5.55 0 0 0-1.5 2.35l-14.77-6.4zM126.85 109a18.75 18.75 0 0 0 3.75-2.5 60.25 60.25 0 0 0 2.61 8.16 29.88 29.88 0 0 1-6.36-5.66zm4.68-14.41a2.85 2.85 0 0 1 .91-2.26 2.76 2.76 0 0 1 2.27-.72 59.34 59.34 0 0 1 34.18 17 53 53 0 0 1 6.9 8.69 22.87 22.87 0 0 0-12.13 6.44 31.08 31.08 0 0 0-4.78 6.3C148.35 122.83 142.1 109 142 108.85a1.35 1.35 0 1 0-2.47 1.09c.28.63 6.74 15 18.11 22.57a18.74 18.74 0 0 0-1.47 6.1 58.28 58.28 0 0 1-8.92-7.29c-12.61-12.67-15.25-28.45-15.72-36.73zm52.65 52.54a2.72 2.72 0 0 1-2.25.78 58.6 58.6 0 0 1-23-7.61 14.42 14.42 0 0 1 1.6-7.58 26.89 26.89 0 0 1 5-7.07 20.63 20.63 0 0 1 11.7-5.82 62.81 62.81 0 0 1 7.73 25 2.94 2.94 0 0 1-.78 2.3z"/>
            <path class="cls-3" d="M173.15 128.59a2.76 2.76 0 0 0-2 .83 2.84 2.84 0 0 0 0 4 2.79 2.79 0 0 0 2 .83 2.72 2.72 0 0 0 2-.83 2.84 2.84 0 0 0 0-4 2.79 2.79 0 0 0-2-.83z"/>
            <path class="cls-5" d="M164.55 84.88c-.08-.31-2.23-7.64-9.9-9.83a13.48 13.48 0 0 0-12.56 3 16.5 16.5 0 0 1-4.1-2.69 1.35 1.35 0 0 0-1.94 1.88 18.86 18.86 0 0 0 5.25 3.45c.72 1.61 3.18 6.32 8.28 8.15a12.47 12.47 0 0 0 4.26.73 20.25 20.25 0 0 0 10.1-3.19 1.35 1.35 0 0 0 .61-1.5zm-14 1.46a11.28 11.28 0 0 1-5.25-4.15 31.82 31.82 0 0 0 6.6 1.16h.1a1.35 1.35 0 0 0 .1-2.7 28.69 28.69 0 0 1-7.1-1.39 10.49 10.49 0 0 1 8.94-1.61 12.07 12.07 0 0 1 7.68 7c-4.23 2.24-7.95 2.81-11.1 1.69z"/>
            <path class="cls-3" d="M50.85 126a14.44 14.44 0 0 1-5-.91 1.35 1.35 0 0 1-.83-1.23 8.76 8.76 0 0 1 5.37-7.7 12.45 12.45 0 0 1 10.28 0 1.35 1.35 0 0 1 .66 1.63c-1.19 3.55-3.19 6-6 7.24a10.83 10.83 0 0 1-4.48.97zm-3-3.1a9.91 9.91 0 0 0 6.43-.3 8.3 8.3 0 0 0 4-4.43 9.6 9.6 0 0 0-6.79.44 6.27 6.27 0 0 0-3.62 4.24z"/>
            <path class="cls-7" d="M72.46 86c-1.73-3.92-5.39-8.44-9.68-9.66a6.65 6.65 0 0 0-5.78.86 30.12 30.12 0 0 0-3.84 3.55c-2.27 2.32-5.7 5.83-7.36 5.16a1.68 1.68 0 0 1-.33-.16A9.7 9.7 0 0 1 46.84 84c.46-.55.95-1.11 1.38-1.72 1.66-2.33 1.46-4 1-5-.75-1.67-2.7-2.69-5.8-3-6.49-.71-9.19 2.41-11.56 5.17a19.72 19.72 0 0 1-2.75 2.8c-4.14 3.21-5.68 3.43-6.5 3a14.94 14.94 0 0 1 1.59-1.63c1.57-1.48 3.36-3.15 3.37-5.18s-1.7-3.56-4.58-4c-6.45-1-17.8 3-21.72 14.9-1.45 4.41-2.11 11.28.82 16.12a11.73 11.73 0 0 0 8.56 5.5c4.94.83 13.28 1.08 21.8 1.08s17.28-.25 22.95-.41l3.52-.1c6.74-.16 11.46-2.27 14-6.27C76.38 99.7 75 91.7 72.46 86zm-1.82 17.66c-2 3.2-6 4.89-11.79 5l-3.53.1c-10.35.3-34.6 1-44.22-.63a9.16 9.16 0 0 1-6.7-4.24c-2.45-4.06-1.84-10-.57-13.88A18.81 18.81 0 0 1 21 76.87a10.32 10.32 0 0 1 1.54.11c1.39.23 2.33.77 2.32 1.35 0 .87-1.46 2.23-2.52 3.23-1.41 1.32-2.63 2.46-2.57 3.85a2.18 2.18 0 0 0 .88 1.68c2.93 2.36 6.75-.21 10.1-2.8a22 22 0 0 0 3.15-3.18c2.22-2.58 4.14-4.8 9.22-4.25 2.83.31 3.48 1.11 3.63 1.44.23.53 0 1.4-.74 2.39-.36.51-.8 1-1.23 1.52-1.2 1.4-2.33 2.72-2 4.22a3 3 0 0 0 2 2c3.35 1.35 7-2.44 10.3-5.78a30.35 30.35 0 0 1 3.43-3.2A4 4 0 0 1 62 79c2.89.83 6.23 4.26 7.95 8.16 2.25 4.99 3.58 11.99.69 16.53z"/>
            <path class="cls-7" d="M43.88 102.38c-.07 0-6.18.15-12.44.12h-3.07c-5.89.08-14.78.2-17.23-2.92-2.69-3.42-.23-7.74-.13-7.92a1.35 1.35 0 0 0-2.33-1.37c-.14.25-3.5 6.07.34 11 2.76 3.52 9.55 4 15.93 4h6.46c6.3 0 12.46-.12 12.52-.12a1.35 1.35 0 0 0 0-2.7z"/>
            <path class="cls-7" d="M64.65 90a1.36 1.36 0 0 0-.75 1.76c0 .05 2 5.17-.11 8.13-1.17 1.65-3.5 2.43-6.94 2.3a1.38 1.38 0 0 0-1.4 1.29 1.35 1.35 0 0 0 1.3 1.41h.83c4 0 6.8-1.16 8.42-3.46 3-4.18.51-10.42.41-10.69a1.36 1.36 0 0 0-1.76-.74z"/>
            <path class="cls-5" d="M197.28 104.69a1.35 1.35 0 0 0-1.67-.92 13.56 13.56 0 0 0-9.71 9.23 11.86 11.86 0 0 1 1.45-9.74 1.35 1.35 0 0 0-2.28-1.45c-5.39 8.46.11 16.3.34 16.63l.15.16a1.19 1.19 0 0 0 .38.25h.06a1.51 1.51 0 0 0 .47.09h.48a1.34 1.34 0 0 0 .24-.12h.07c.02 0 0 0 0 0a1.23 1.23 0 0 0 .33-.35 1.3 1.3 0 0 0 .17-.44 1.23 1.23 0 0 0 0-.27 11.28 11.28 0 0 1 8.49-11.19 1.35 1.35 0 0 0 1.03-1.88z"/>
            <path class="cls-7" d="M237.33 81.67a12.36 12.36 0 0 0-9-7.45 9 9 0 0 0-7.93 2c-3.47 3.51-1.35 6.85.36 9.52.4.63.81 1.27 1.17 1.93a11.54 11.54 0 0 1 .87 1.94 19.58 19.58 0 0 1 1 7.11c-.09 1.88-.34 6.88 6.22 7.55a4.07 4.07 0 0 0 .5 0c2.6 0 5.91-2 7.36-5.91a22.47 22.47 0 0 0-.55-16.69zm-2 15.81c-1 2.81-3.4 4.3-5.05 4.14-3.4-.35-3.94-1.87-3.8-4.73v-1.37l4.69-.1a1.35 1.35 0 0 0 0-2.7l-4.82.1a24.17 24.17 0 0 0-.94-4c-.12-.35-.26-.7-.41-1l4.56-2.1a1.35 1.35 0 0 0-1.13-2.45l-4.69 2.16c-.22-.37-.45-.72-.67-1.07-1.86-2.91-2.6-4.27-.72-6.17a6.36 6.36 0 0 1 5.52-1.27 9.71 9.71 0 0 1 7 5.89 19.78 19.78 0 0 1 .47 14.67z"/>
            <path class="cls-4" d="M135 150a5.54 5.54 0 0 1-2.92-.84c-2.54-1.55-3.77-4.88-3.22-8.68.17-1.14.93-5 3.8-6.94a6.67 6.67 0 0 1 5.48-.83 12.77 12.77 0 0 1 8.05 6.54 8.46 8.46 0 0 1 .41 7.19 5.55 5.55 0 0 1-3.17 3.12 8.4 8.4 0 0 1-5.59-.32 5.79 5.79 0 0 1-2.84.76zm1.22-14.84a3.66 3.66 0 0 0-2.05.61c-1.55 1.05-2.38 3.32-2.64 5.09-.47 3.25.71 5.23 2 6a3 3 0 0 0 3.45-.23 1.34 1.34 0 0 1 1.38-.11 6.21 6.21 0 0 0 4.19.5 2.82 2.82 0 0 0 1.61-1.65 5.82 5.82 0 0 0-.34-4.92 10.17 10.17 0 0 0-6.28-5.12 5.44 5.44 0 0 0-1.32-.21z"/>
            <path class="cls-5" d="M88.28 108.69a1.35 1.35 0 0 0-1.9.11c-.16.17-3.2 3.42-9.58 4.42a18.58 18.58 0 0 0 5.84-6 1.35 1.35 0 0 0-2.37-1.28 17.13 17.13 0 0 1-10.52 7.47 1.35 1.35 0 0 0-1 1.62 1 1 0 0 0 0 .1 1.51 1.51 0 0 0 .13.29.18.18 0 0 0 0 .07 1.31 1.31 0 0 0 1 .61c1.07.1 2.09.15 3.07.15 10.26 0 15.15-5.37 15.38-5.62a1.35 1.35 0 0 0-.05-1.94z"/>
            <path class="cls-6" d="M117.63 128.07c-1-5.25-2.56-10.46-6.7-13.09-2.92-1.85-6.73-2.15-11.65-.92a343.83 343.83 0 0 0-35.73 11.12 1.69 1.69 0 0 0-.27.1c-8.82 3.28-16.63 6.58-23 9.52a1 1 0 0 0-.28.2c-4.76 2.22-8.66 4.23-11.47 5.85a4.29 4.29 0 0 0-2.09 4.6 4.21 4.21 0 0 0 3.56 3.37 244 244 0 0 0 25.36 1.69h.06c4.24.11 8.72.17 13.33.17 12 0 24.91-.4 36.7-1.32 5.1-.4 8.62-2 10.77-4.8 3.27-4.3 2.55-10.75 1.41-16.49zm-3.56 14.87c-1.66 2.18-4.54 3.4-8.83 3.74l-2.08.15-1.75-9.83a1.35 1.35 0 0 0-2.66.47l1.7 9.6c-7 .45-14.19.73-21.32.87l-1.69-9.59a1.35 1.35 0 0 0-2.66.47l1.62 9.16c-6.9.1-13.64.07-19.88-.08L55 139.38a1.35 1.35 0 1 0-2.65.47l1.4 7.92c-9.71-.29-18-.86-23.39-1.62a1.55 1.55 0 0 1-1.31-1.27 1.6 1.6 0 0 1 .79-1.74c2.48-1.43 5.82-3.16 9.85-5.08l1 5.61a1.34 1.34 0 0 0 1.31 1.12h.23a1.35 1.35 0 0 0 1.1-1.57l-1.12-6.32c5.78-2.66 12.77-5.6 20.59-8.55l1.39 7.82a1.34 1.34 0 0 0 1.32 1.11 1 1 0 0 0 .24 0 1.35 1.35 0 0 0 1.09-1.56l-1.46-8.31a341.53 341.53 0 0 1 34.53-10.69 21.2 21.2 0 0 1 3.31-.58l2.18 12a1.36 1.36 0 0 0 1.33 1.11h.24a1.36 1.36 0 0 0 1.09-1.57L106 116.11a8.15 8.15 0 0 1 3.48 1.15c3.28 2.08 4.58 6.68 5.51 11.33 1.01 5.16 1.7 10.89-.92 14.35z"/>
            <path class="cls-6" d="M90 125.17a1.35 1.35 0 0 0-2.66.47l2 11.35a1.36 1.36 0 0 0 1.33 1.12h.24a1.35 1.35 0 0 0 1.09-1.59z"/>
            <path class="cls-1" d="M218.68 90.6a1.35 1.35 0 0 0-1.5-.71c-.26.06-6.4 1.48-8.7 7.21a13.49 13.49 0 0 0-.92 6.1 21.52 21.52 0 0 0-3.94-2.43 1.35 1.35 0 1 0-1.15 2.45c8.73 4.12 9.27 12 9.29 12.34a1.34 1.34 0 0 0 1.34 1.28h.07a1.35 1.35 0 0 0 1.28-1.41 16.92 16.92 0 0 0-2.42-7.22c3.59-1.48 6-3.69 7.24-6.59 2.22-5.27-.47-10.78-.59-11.02zm-1.9 10c-1 2.27-3 4-6 5.22a11.84 11.84 0 0 1 .21-7.7 9.91 9.91 0 0 1 5.71-5.23 11.09 11.09 0 0 1 .08 7.7z"/>
            <path class="cls-2" d="M239.21 129.51c-.18-11.19-2.74-17.89-7.82-20.49-9.27-4.73-16 1.57-18.42 4.45a12.53 12.53 0 0 0-7.93-3c-4.73-.06-8.26 1.11-10.68 3.6-2.93 3-4.22 7.75-4 14.51.36 8.62 1.93 20.2 11.5 21.33a26.19 26.19 0 0 0 9.21-.93 12.4 12.4 0 0 1 2.56-.46 10.28 10.28 0 0 1 1.37.48 21.94 21.94 0 0 0 8 1.74 17.38 17.38 0 0 0 8.92-2.53c6.63-3.88 7.41-11.63 7.29-18.7zm-8.65 16.38c-6.37 3.73-11.72 1.69-14.6.59a9 9 0 0 0-2-.62h-.38a15.55 15.55 0 0 0-3.09.54 23.89 23.89 0 0 1-8.27.88c-5.8-.68-8.62-6.47-9.12-18.76-.24-5.89.83-10.11 3.18-12.52 1.91-2 4.67-2.83 8.71-2.78a9.75 9.75 0 0 1 6.44 2.52 13.33 13.33 0 0 0-1.12 2.94 1.35 1.35 0 0 0 1 1.63 1.87 1.87 0 0 0 .32 0 1.35 1.35 0 0 0 1.31-1 11.93 11.93 0 0 1 1.3-3.06 16.53 16.53 0 0 1 4.41-4.3 10.83 10.83 0 0 1 11.51-.5c4.11 2.09 6.19 8 6.35 18.13.15 8.89-1.63 13.77-5.95 16.31z"/>
            <path class="cls-2" d="M205.32 140.53c-5.21-1.36-5.22-11.44-4.78-15.21a1.36 1.36 0 0 0-1.19-1.5 1.35 1.35 0 0 0-1.49 1.18c-.08.65-1.76 15.91 6.77 18.14a1.41 1.41 0 0 0 .35.05 1.35 1.35 0 0 0 .34-2.66z"/>
            <path class="cls-2" d="M229.54 134.14a1.34 1.34 0 0 0-1.45 1.25c-.39 5.28-4.52 5.53-5 5.54a1.35 1.35 0 0 0 0 2.7c2.45 0 7.19-1.72 7.66-8a1.34 1.34 0 0 0-1.21-1.49z"/>
            <path class="cls-2" d="M227.1 116.14a5.86 5.86 0 0 0-5.2-.24 1.35 1.35 0 0 0 1.16 2.44 3.1 3.1 0 0 1 2.68.13c1.56 1 2.54 3.73 2.76 7.84a1.36 1.36 0 0 0 1.35 1.28h.08a1.34 1.34 0 0 0 1.27-1.42c-.28-5.17-1.66-8.59-4.1-10.03z"/>
        </g>
    </g>
</svg>
