<svg id="Слой_1" xmlns="http://www.w3.org/2000/svg" viewBox="0 0 57.2 57">
    <style>
        .st0{fill:#fff}
    </style>
    <path class="st0" d="M2127.4 589c-15.8 0-28.6-12.8-28.6-28.5s12.8-28.5 28.6-28.5 28.6 12.8 28.6 28.5-12.8 28.5-28.6 28.5zm0-55c-14.7 0-26.6 11.9-26.6 26.5s11.9 26.5 26.6 26.5 26.6-11.9 26.6-26.5-11.9-26.5-26.6-26.5z" transform="translate(-2098.84 -532)"/>
    <path class="st0" d="M2136.2 560.8c-.3 0-.5-.1-.7-.3l-13.8-13.8c-.2-.2-.3-.4-.3-.7 0-.3.1-.5.3-.7l.8-.8c.4-.4 1-.4 1.4 0l13.8 13.8c.2.2.3.4.3.7 0 .3-.1.5-.3.7l-.8.8c-.2.2-.4.3-.7.3z" transform="translate(-2098.84 -532)"/>
    <path class="st0" d="M2123.2 575.7c-.3 0-.5-.1-.7-.3l-.8-.8c-.2-.2-.3-.4-.3-.7 0-.3.1-.5.3-.7l13.8-13.7c.4-.4 1-.4 1.4 0l.8.8c.2.2.3.4.3.7 0 .3-.1.5-.3.7l-13.8 13.8c-.2.1-.4.2-.7.2z" transform="translate(-2098.84 -532)"/>
</svg>
