<svg xmlns="http://www.w3.org/2000/svg" viewBox="0 0 115.85 27.31">
    <defs>
        <style>
            .cls-1,.cls-8,.cls-9{fill:#fff}.cls-2{fill:url(#linear-gradient)}.cls-3{fill:url(#linear-gradient-2)}.cls-4{fill:url(#linear-gradient-3)}.cls-5{fill:url(#linear-gradient-4)}.cls-6{opacity:.2}.cls-6,.cls-7,.cls-8{isolation:isolate}.cls-7{opacity:.12}.cls-8{opacity:.25}.cls-9{stroke:#fff;stroke-miterlimit:10;stroke-width:.2px}
        </style>
        <linearGradient id="linear-gradient" x1="11.83" y1="166.52" x2="-4.96" y2="149.74" gradientTransform="matrix(1 0 0 -1 0 168.47)" gradientUnits="userSpaceOnUse">
            <stop offset="0" stop-color="#5a9efb"/>
            <stop offset=".01" stop-color="#5a9ffb"/>
            <stop offset=".26" stop-color="#6bbcfc"/>
            <stop offset=".51" stop-color="#76d0fc"/>
            <stop offset=".76" stop-color="#7dddfd"/>
            <stop offset="1" stop-color="#80e1fd"/>
        </linearGradient>
        <linearGradient id="linear-gradient-2" x1="23.86" y1="155.23" x2="-.34" y2="155.23" gradientTransform="matrix(1 0 0 -1 0 168.47)" gradientUnits="userSpaceOnUse">
            <stop offset="0" stop-color="#f5de34"/>
            <stop offset=".41" stop-color="#edbb2c"/>
            <stop offset=".78" stop-color="#e8a326"/>
            <stop offset="1" stop-color="#e79a24"/>
        </linearGradient>
        <linearGradient id="linear-gradient-3" x1="14.85" y1="152.94" x2="-7.9" y2="130.18" gradientTransform="matrix(1 0 0 -1 0 168.47)" gradientUnits="userSpaceOnUse">
            <stop offset="0" stop-color="#dc3d45"/>
            <stop offset="1" stop-color="#a61860"/>
        </linearGradient>
        <linearGradient id="linear-gradient-4" x1="-2.68" y1="175.06" x2="7.49" y2="164.9" gradientTransform="matrix(1 0 0 -1 0 168.47)" gradientUnits="userSpaceOnUse">
            <stop offset="0" stop-color="#629e73"/>
            <stop offset=".07" stop-color="#64a473"/>
            <stop offset=".48" stop-color="#76cd79"/>
            <stop offset=".8" stop-color="#81e57c"/>
            <stop offset="1" stop-color="#86ef7d"/>
        </linearGradient>
    </defs>
    <title>
        google-play
    </title>
    <g id="Слой_2" data-name="Слой 2">
        <g id="artwork">
            <path class="cls-1" d="M58.16 15a4.25 4.25 0 1 0 4.27 4.25A4.19 4.19 0 0 0 58.16 15zm0 6.83a2.46 2.46 0 0 1-2.4-2.58 2.41 2.41 0 1 1 4.8 0 2.46 2.46 0 0 1-2.4 2.57zM48.85 15a4.25 4.25 0 1 0 4.27 4.25A4.19 4.19 0 0 0 48.85 15zm0 6.83a2.46 2.46 0 0 1-2.4-2.58 2.41 2.41 0 1 1 4.8 0 2.46 2.46 0 0 1-2.4 2.57zm-11.08-5.54v1.81h4.32a3.82 3.82 0 0 1-1 2.27 4.44 4.44 0 0 1-3.34 1.32 4.8 4.8 0 0 1 0-9.6A4.65 4.65 0 0 1 41 13.37l1.3-1.27a6.31 6.31 0 0 0-4.53-1.82 6.7 6.7 0 0 0-6.7 6.61 6.69 6.69 0 0 0 6.7 6.6 6 6 0 0 0 4.61-1.85 6 6 0 0 0 1.56-4.22 5.46 5.46 0 0 0-.1-1.13zm45.31 1.4A4 4 0 0 0 79.44 15a4 4 0 0 0-4 4.25 4.16 4.16 0 0 0 4.22 4.25 4.23 4.23 0 0 0 3.54-1.88l-1.45-1a2.42 2.42 0 0 1-2.09 1.18 2.16 2.16 0 0 1-2.06-1.29l5.68-2.35zm-5.8 1.42a2.33 2.33 0 0 1 2.22-2.48 1.65 1.65 0 0 1 1.58.9zm-4.62 4.12h1.86v-12.5h-1.86zm-3.07-7.29h-.06a2.94 2.94 0 0 0-2.24-.94 4.25 4.25 0 0 0 0 8.5 2.91 2.91 0 0 0 2.24-1h.06v.61c0 1.63-.87 2.49-2.27 2.49a2.35 2.35 0 0 1-2.14-1.51l-1.63.68a4.07 4.07 0 0 0 3.77 2.51c2.19 0 4.05-1.29 4.05-4.43v-7.61h-1.78zm-2.14 5.88a2.44 2.44 0 0 1-2.37-2.56 2.47 2.47 0 0 1 2.37-2.6 2.4 2.4 0 0 1 2.27 2.6 2.38 2.38 0 0 1-2.27 2.56zm24.38-11.09h-4.47v12.5h1.87V18.5h2.6a4 4 0 0 0 4.1-3.88 4 4 0 0 0-4.1-3.89zm0 6h-2.6v-4.26h2.65a2.15 2.15 0 1 1 0 4.29zM103.41 15a3.51 3.51 0 0 0-3.33 1.92l1.66.69a1.77 1.77 0 0 1 1.71-.92 1.8 1.8 0 0 1 2 1.61v.13a4.18 4.18 0 0 0-2-.48c-1.78 0-3.6 1-3.6 2.81a2.89 2.89 0 0 0 3.1 2.75 2.62 2.62 0 0 0 2.38-1.22h.07v1h1.8v-4.87c.01-2.22-1.65-3.42-3.79-3.42zm-.22 6.85c-.61 0-1.47-.3-1.47-1.06 0-1 1.07-1.33 2-1.33a3.26 3.26 0 0 1 1.71.42 2.26 2.26 0 0 1-2.24 1.93zm10.58-6.57l-2.14 5.42h-.06l-2.22-5.42h-2l3.33 7.57-1.91 4.15h1.94l5.14-11.79zM97 23.23h1.87v-12.5H97z"/>
            <path class="cls-2" d="M.46.77A2 2 0 0 0 0 2.18v22.11a2 2 0 0 0 .46 1.41l.08.07 12.39-12.39v-.29L.54.7z"/>
            <path class="cls-3" d="M17.06 17.51l-4.13-4.13v-.29L17.06 9h.09L22 11.79c1.4.8 1.4 2.1 0 2.89l-4.89 2.78z"/>
            <path class="cls-4" d="M17.15 17.46l-4.22-4.22L.46 25.7a1.62 1.62 0 0 0 2.08.06l14.61-8.3"/>
            <path class="cls-5" d="M17.15 9L2.54.71A1.62 1.62 0 0 0 .46.77l12.47 12.47z"/>
            <path class="cls-6" d="M17.06 17.37L2.54 25.61a1.66 1.66 0 0 1-2 0l-.08.08.08.07a1.66 1.66 0 0 0 2 0l14.61-8.3z"/>
            <path class="cls-7" d="M.46 25.55a2 2 0 0 1-.46-1.4v.14a2 2 0 0 0 .46 1.41l.08-.08z"/>
            <path class="cls-7" d="M22 14.53l-5 2.84.09.09L22 14.68a1.76 1.76 0 0 0 1.05-1.44A1.85 1.85 0 0 1 22 14.53z"/>
            <path class="cls-8" d="M2.54.86L22 11.94a1.84 1.84 0 0 1 1.05 1.3A1.76 1.76 0 0 0 22 11.79L2.54.71C1.14-.08 0 .58 0 2.18v.14C0 .72 1.14.06 2.54.86z"/>
            <path class="cls-9" d="M32.14 7.51h-.74v-2h.6a2.88 2.88 0 0 0 .76-2.3v-3h4V5.5h.67v2h-.74V6.23h-4.55zm1.38-4.31A3.84 3.84 0 0 1 33 5.5h3V1h-2.48z"/>
            <path class="cls-9" d="M43.44 5.46a3.11 3.11 0 0 1-4.4 0 3.08 3.08 0 0 1-.88-2.23A3.07 3.07 0 0 1 39 1a3.11 3.11 0 0 1 4.4 0 3.08 3.08 0 0 1 .89 2.22 3.09 3.09 0 0 1-.85 2.24zM39.61 5a2.32 2.32 0 0 0 3.26 0 2.34 2.34 0 0 0 .67-1.73 2.34 2.34 0 0 0-.67-1.72 2.32 2.32 0 0 0-3.26 0A2.37 2.37 0 0 0 39 3.23 2.38 2.38 0 0 0 39.61 5z"/>
            <path class="cls-9" d="M48.21 6.37a3 3 0 0 1-2.21-.9 3 3 0 0 1-.9-2.24A3 3 0 0 1 46 1a3 3 0 0 1 2.21-.9 2.78 2.78 0 0 1 2.2 1l-.54.52a2 2 0 0 0-1.66-.78 2.28 2.28 0 0 0-1.66.66 2.31 2.31 0 0 0-.67 1.73A2.32 2.32 0 0 0 46.55 5a2.28 2.28 0 0 0 1.66.66 2.36 2.36 0 0 0 1.84-.87l.54.54a3 3 0 0 1-1 .78 3.24 3.24 0 0 1-1.38.26z"/>
            <path class="cls-9" d="M53.7 6.23h-.77V1h-1.67V.23h4.12V1H53.7z"/>
            <path class="cls-9" d="M60.67.23L58.4 5.3A1.51 1.51 0 0 1 57 6.37a1.53 1.53 0 0 1-.59-.14l.2-.71a.83.83 0 0 0 .4.11.73.73 0 0 0 .42-.1 1 1 0 0 0 .27-.39l.22-.47L55.9.23h.9l1.49 3.45L59.77.23z"/>
            <path class="cls-9" d="M61.55 6.23v-6h4.34v6h-.77V1h-2.8v5.23z"/>
            <path class="cls-9" d="M67.26 6.23v-6H68v2.58h3V.23h.77v6H71v-2.7h-3v2.7z"/>
            <path class="cls-9" d="M78.09 5.46a3 3 0 0 1-2.21.91 2.91 2.91 0 0 1-2.19-.91 3.09 3.09 0 0 1-.89-2.23A3.08 3.08 0 0 1 73.69 1a3.1 3.1 0 0 1 4.39 0A3.08 3.08 0 0 1 79 3.23a3.12 3.12 0 0 1-.91 2.23zM74.25 5a2.21 2.21 0 0 0 1.63.67A2.18 2.18 0 0 0 77.51 5a2.34 2.34 0 0 0 .67-1.73 2.34 2.34 0 0 0-.67-1.72 2.18 2.18 0 0 0-1.63-.71 2.21 2.21 0 0 0-1.63.67 2.37 2.37 0 0 0-.66 1.72A2.38 2.38 0 0 0 74.25 5z"/>
            <path class="cls-9" d="M82.12 6.23v-6h2.17a1.76 1.76 0 0 1 1.22.47A1.52 1.52 0 0 1 86 1.87a1.3 1.3 0 0 1-.23.75 1.31 1.31 0 0 1-.59.5 1.47 1.47 0 0 1 .73.52 1.37 1.37 0 0 1 .29.85 1.59 1.59 0 0 1-.54 1.23 1.87 1.87 0 0 1-1.28.48zm.77-3.42h1.4a.9.9 0 0 0 .7-.29.9.9 0 0 0 .26-.63.92.92 0 0 0-.25-.63.87.87 0 0 0-.67-.26h-1.44zm0 2.69h1.55a.93.93 0 0 0 .72-.31 1 1 0 0 0 0-1.36 1 1 0 0 0-.74-.3h-1.53z"/>
        </g>
    </g>
</svg>
