<svg xmlns="http://www.w3.org/2000/svg" viewBox="0 0 560 560">
    <title>
        Abstract user icon
    </title>
    <path d="M280 560c-74.8 0-145.1-29.1-198-82C29.1 425.1 0 354.8 0 280S29.1 134.9 82 82C134.9 29.1 205.2 0 280 0s145.1 29.1 198 82c52.9 52.9 82 123.2 82 198s-29.1 145.1-82 198c-52.9 52.9-123.2 82-198 82zm0-530C142.1 30 30 142.1 30 280s112.1 250 250 250 250-112.1 250-250S417.9 30 280 30z"/>
    <path d="M280 340c-71.7 0-130-58.3-130-130S208.3 80 280 80s130 58.3 130 130-58.3 130-130 130zm0-230c-55.1 0-100 44.9-100 100s44.9 100 100 100 100-44.9 100-100-44.9-100-100-100z"/>
    <path d="M459 466.4c-19.2-54.2-61.3-96.2-115.5-115.5-47.8-17-99.4-14.3-145.2 7.5-45.8 21.8-80.4 60.2-97.4 108l-28.3-10c19.7-55.4 59.7-99.8 112.8-125s112.8-28.3 168.2-8.7c62.7 22.3 111.4 71 133.7 133.7l-28.3 10z"/>
</svg>
